<svg xmlns="http://www.w3.org/2000/svg"><defs><symbol id="arrow" viewBox="0 0 40 41"><g clip-path="url(#clip0_31_979)"><path fill="transparent" d="M0 0h40v40.07H0z"/><path fill="currentColor" d="M39.965 19.903 23.028 2.966l-5.582 5.6 7.407 7.388H-.087v7.898H24.87l-7.406 7.442 5.599 5.582 16.85-16.902v-.018l.052-.053Z"/></g><defs><clipPath id="clip0_31_979"><path fill="transparent" d="M0 0h40v40.07H0z"/></clipPath></defs></symbol><symbol id="assessment" viewBox="0 0 40 36"><path fill="currentColor" d="M27.5 1.257H6.507V34.25H33.5V7.257l-6-6ZM9.467 31.29V4.216H26.02v4.52h4.52V31.29H9.466Z"/><path fill="currentColor" d="M27.493 10.276H12.5v2.96h14.993v-2.96Zm0 5.994H12.5v2.96h14.993v-2.96Zm0 6H12.5v2.96h14.993v-2.96Z"/></symbol><symbol id="bag" viewBox="0 0 40 40"><path fill="currentColor" d="M28.897 10.96V7.34c0-3.946-3.211-7.15-7.15-7.15H18.11c-3.945 0-7.15 3.212-7.15 7.15v3.614H3.74v28.779h32.378V10.96h-7.22ZM14.504 7.34a3.602 3.602 0 0 1 3.598-3.599h3.638a3.602 3.602 0 0 1 3.598 3.599v3.614H14.504V7.339Zm18.055 28.85H7.29V14.512h25.276v21.677h-.008Z"/></symbol><symbol id="bell" viewBox="0 0 40 40"><g clip-path="url(#clip0_31_955)"><path fill="currentColor" d="M39.613 32.606c-3.882 0-7.047-3.164-7.047-7.047V13.667c0-7.41-5.634-13.438-12.57-13.438-6.928 0-12.57 6.029-12.57 13.438V25.56c0 3.89-3.165 7.047-7.047 7.047H.213v3.551h.174c.236 0 .465-.008.694-.024h15.34v.063a3.58 3.58 0 0 0 3.583 3.583 3.58 3.58 0 0 0 3.582-3.583v-.063h15.34c.23.016.458.024.695.024h.174v-3.551h-.182Zm-19.61 3.614c-.015 0-.03-.016-.03-.031 0-.016.015-.032.03-.032.017 0 .032.016.032.032 0 .015-.015.031-.031.031Zm.356-3.59c-.118-.016-.237-.016-.363-.016s-.245.008-.363.016H8.27a10.578 10.578 0 0 0 2.714-7.07V13.666c0-5.452 4.049-9.887 9.02-9.887 4.971 0 9.02 4.435 9.02 9.887V25.56a10.54 10.54 0 0 0 2.714 7.07H20.359Z"/></g><defs><clipPath id="clip0_31_955"><path fill="#fff" d="M0 0h40v40H0z"/></clipPath></defs></symbol><symbol id="bookmark" viewBox="0 0 40 40"><path fill="currentColor" d="M29.008 3.772v28.297l-6.731-5.768-2.313-1.98-2.312 1.98-6.73 5.768V3.772h18.086ZM32.558.22H7.37v39.574L19.965 29l12.594 10.795V.22Z"/></symbol><symbol id="calendar" viewBox="0 0 40 40"><g clip-path="url(#clip0_31_985)"><path fill="currentColor" d="M32.559 3.748h-3.535V.481h-3.552v3.275H14.63V.481h-3.55v3.275H7.401C3.464 3.748.268 6.944.268 10.89v21.85a7.136 7.136 0 0 0 7.134 7.134h25.315a7.12 7.12 0 0 0 7.117-7.118V11.032a7.28 7.28 0 0 0-7.275-7.284ZM7.402 7.3h3.677v3.796h3.551V7.299h10.842v3.796h3.551V7.299h3.536a3.735 3.735 0 0 1 3.732 3.733v3.685H3.82V10.89c0-1.981 1.61-3.59 3.583-3.59Zm25.315 29.024H7.402a3.59 3.59 0 0 1-3.583-3.583V18.268h32.472v14.488a3.585 3.585 0 0 1-3.574 3.567Z"/></g><defs><clipPath id="clip0_31_985"><path fill="#fff" d="M0 0h40v40H0z"/></clipPath></defs></symbol><symbol id="check" viewBox="0 0 40 34"><path fill="currentColor" d="M38.876 9.171 34.23 4.527 15.363 23.395 5.9 13.947l-4.63 4.658 14.093 14.079 2.322-2.337.015.014 21.176-21.19Z"/></symbol><symbol id="chevron-down" viewBox="0 0 40 41"><path fill="currentColor" d="M19.955 20.356 8.58 9.018 3 14.616l16.902 16.85 16.99-16.885L31.311 9 19.955 20.356Z"/></symbol><symbol id="chevron-left" viewBox="0 0 40 41"><path fill="currentColor" d="M16.744 20.764 28.082 9.39l-5.58-5.564L5.633 20.728l2.808 2.773-.07.07L22.52 37.719l5.581-5.581-11.356-11.373Z"/></symbol><symbol id="chevron-right" viewBox="0 0 40 41"><path fill="currentColor" d="M23.607 20.764 12.269 32.136l5.598 5.581 16.85-16.902-2.79-2.79.052-.053L17.832 3.826l-5.581 5.582 11.356 11.356Z"/></symbol><symbol id="chevron-up" viewBox="0 0 40 41"><path fill="currentColor" d="m20.693 14.375 11.374 11.338 5.581-5.581-16.902-16.85L3.756 20.15l5.581 5.6 11.356-11.374Z"/></symbol><symbol id="clipboard" viewBox="0 0 40 40"><path fill="currentColor" d="M4.963.26v39.574h32.378V.26H4.963Zm10.764 3.551h10.842v3.67H15.727V3.81Zm18.055 32.472H8.515V3.811h3.669v7.22h17.944v-7.22h3.67v32.472h-.016Z"/><path fill="currentColor" d="M30.136 14.677H12.152v3.551h17.984v-3.55Zm0 7.197H12.152v3.551h17.984v-3.55Zm0 7.189H12.152v3.55h17.984v-3.55Z"/></symbol><symbol id="clock" viewBox="0 0 40 40"><path fill="currentColor" d="M20 0C8.95 0 0 8.95 0 20s8.959 20 20 20 20-8.959 20-20S31.05 0 20 0Zm11.608 31.608A16.298 16.298 0 0 1 20 36.418a16.298 16.298 0 0 1-11.607-4.81A16.298 16.298 0 0 1 3.582 20c0-4.388 1.707-8.504 4.81-11.607A16.298 16.298 0 0 1 20 3.582c4.388 0 8.504 1.707 11.608 4.81A16.298 16.298 0 0 1 36.418 20a16.378 16.378 0 0 1-4.81 11.608Z"/><path fill="currentColor" d="M21.795 7.268h-3.59v14.527h10.89v-3.59h-7.3V7.268Z"/></symbol><symbol id="close" viewBox="0 0 24 24"><path fill="currentColor" d="M23.347 6.235 17.748.67l-5.67 5.687L6.025.285.442 5.884l6.073 6.055-5.704 5.722 5.581 5.581 5.705-5.704 5.598 5.581 5.582-5.581-5.617-5.599 5.687-5.704Z"/></symbol><symbol id="content" viewBox="0 0 40 40"><path fill="currentColor" d="m23.65 2.928-3.6 1.799-3.598-1.8H.268v32.378h15.743l4.048 1.799 3.598-1.8h16.185V2.929H23.65Zm-6.89 28.826H3.82V6.479h11.797l2.66 1.333v24.62l-.829-.37-.686-.308Zm19.531 0H22.813l-.75.379-.236.118V7.804l2.66-1.333h11.796v25.283h.008Z"/><path fill="currentColor" d="M32.645 10.148H25.45v3.55h7.196v-3.55Zm0 7.189H25.45v3.55h7.196v-3.55Zm0 7.196H25.45v3.551h7.196v-3.55ZM14.662 10.148H7.465v3.55h7.197v-3.55Zm0 7.189H7.465v3.55h7.197v-3.55Zm0 7.196H7.465v3.551h7.197v-3.55Z"/></symbol><symbol id="dashboard" viewBox="0 0 40 40"><g fill="currentColor" clip-path="url(#clip0_31_957)"><path d="M14.614 3.772v7.291H3.733V3.772h10.881ZM18.165.22H.182v14.393h17.983V.221Zm18.032 28.733v7.29H25.315v-7.29h10.881Zm3.55-3.552H21.765v14.394h17.984V25.4Zm-3.55-21.629v14.48H25.315V3.772h10.881ZM39.746.22H21.765v21.582h17.984V.221ZM14.614 21.756v14.48H3.733v-14.48h10.881Zm3.551-3.551H.182v21.582h17.983V18.205Z"/></g><defs><clipPath id="clip0_31_957"><path fill="#fff" d="M0 0h40v40H0z"/></clipPath></defs></symbol><symbol id="discussion" viewBox="0 0 40 40"><path fill="currentColor" d="M36.197 9.13v16.28H9.681l-.986.82-4.971 4.143V9.13h32.471Zm3.55-3.551H.183v32.377l10.794-8.996h28.78V5.58h-.008Z"/><path fill="currentColor" d="M28.913 16.374h-3.551v3.551h3.551v-3.551Zm-7.173 0h-3.551v3.551h3.551v-3.551Zm-7.197 0h-3.55v3.551h3.55v-3.551Z"/></symbol><symbol id="document" viewBox="0 0 40 40"><path fill="currentColor" d="M32.543 11.679v-.024l-7.197-7.197h-.023v-.015l-1.776.015H7.354v32.378h25.181V11.679h.008Zm-5.003 0h-2.146l-.024-2.17 2.17 2.17Zm1.452 21.606H10.905V8.009h10.898l.071 7.22h7.11v18.056h.008Z"/></symbol><symbol id="envelope" viewBox="0 0 40 40"><path fill="currentColor" d="M.268 6.21v28.78h39.574V6.21H.268ZM32.44 9.761l-12.389 8.673L7.662 9.76H32.44ZM3.82 31.438V11.403l16.23 11.363 16.232-11.363v20.035H3.82Z"/></symbol><symbol id="folder" viewBox="0 0 40 40"><path fill="currentColor" d="M32.559 14.606V7.41H14.535l.072-3.599H.245L.182 7.41v28.779h32.377l7.196-21.583H32.56ZM3.733 7.45v-.08h7.251l-.07 3.599H29v3.645H7.37L3.733 25.536V7.449Zm26.261 25.189H5.106l4.829-14.48h24.889l-2.265 6.802-2.565 7.678Z"/></symbol><symbol id="gear" viewBox="0 0 40 40"><g fill="currentColor" clip-path="url(#clip0_31_970)"><path d="M19.996 4.948c.687.93 1.736 1.917 3.401 2.367a6.004 6.004 0 0 0 4.103-.34c.166 1.169.592 2.542 1.784 3.733 1.255 1.255 2.699 1.642 3.748 1.768-.457 1.057-.789 2.454-.347 4.119.45 1.665 1.436 2.707 2.367 3.401-.93.687-1.917 1.736-2.367 3.401-.442 1.665-.11 3.062.347 4.12-1.05.118-2.493.512-3.748 1.767-1.215 1.215-1.626 2.596-1.76 3.74a6.335 6.335 0 0 0-2.556-.552c-.521 0-1.05.07-1.57.205-1.666.45-2.707 1.436-3.402 2.367-.686-.93-1.736-1.917-3.401-2.367a5.875 5.875 0 0 0-1.57-.205 6.305 6.305 0 0 0-2.557.552c-.134-1.144-.544-2.525-1.76-3.74-1.254-1.255-2.699-1.642-3.748-1.768.458-1.057.79-2.454.347-4.119-.45-1.665-1.436-2.706-2.367-3.4.931-.688 1.917-1.737 2.367-3.402.442-1.665.11-3.062-.347-4.12 1.05-.117 2.494-.512 3.748-1.767 1.216-1.215 1.626-2.596 1.76-3.74.71.308 1.555.552 2.557.552.52 0 1.05-.07 1.57-.205 1.673-.45 2.715-1.436 3.401-2.367Zm0-4.87c-2.407 0-1.988 3.189-4.316 3.812a2.399 2.399 0 0 1-.647.087c-1.563 0-2.636-1.515-3.985-1.515-.316 0-.655.087-1.01.292-2.084 1.207-.135 3.756-1.84 5.46-.694.695-1.53.782-2.359.782-.268 0-.544-.008-.804-.008-.908 0-1.737.11-2.289 1.065-1.207 2.083 1.76 3.314 1.136 5.642C3.26 18.008.08 17.59.08 19.996s3.188 1.989 3.811 4.317c.624 2.327-2.343 3.558-1.136 5.642.552.955 1.389 1.065 2.288 1.065.269 0 .537-.008.805-.008.829 0 1.665.087 2.36.781 1.704 1.705-.253 4.254 1.838 5.46a2 2 0 0 0 1.01.293c1.35 0 2.423-1.515 3.986-1.515.205 0 .426.023.646.087 2.328.623 1.91 3.811 4.317 3.811s1.988-3.188 4.316-3.811a2.4 2.4 0 0 1 .648-.087c1.562 0 2.635 1.515 3.985 1.515.315 0 .654-.087 1.01-.292 2.083-1.207.134-3.756 1.838-5.46.695-.695 1.531-.782 2.36-.782.268 0 .544.008.804.008.908 0 1.736-.11 2.289-1.065 1.207-2.084-1.76-3.315-1.136-5.642.623-2.328 3.811-1.91 3.811-4.317s-3.188-1.988-3.811-4.316c-.624-2.328 2.343-3.56 1.136-5.643-.552-.954-1.389-1.065-2.288-1.065-.269 0-.537.008-.805.008-.829 0-1.665-.087-2.36-.781-1.704-1.705.119-4.798-2.154-5.603a2.39 2.39 0 0 0-.797-.15c-1.452 0-2.28 1.523-3.843 1.523-.213 0-.442-.031-.687-.094-2.328-.616-1.91-3.796-4.324-3.796Z"/><path d="M19.996 18.157a1.85 1.85 0 0 1 1.847 1.847 1.849 1.849 0 0 1-1.847 1.846 1.849 1.849 0 0 1-1.846-1.846 1.86 1.86 0 0 1 1.846-1.847Zm0-3.55a5.395 5.395 0 0 0-5.397 5.397 5.395 5.395 0 0 0 5.397 5.397 5.395 5.395 0 0 0 5.398-5.397 5.395 5.395 0 0 0-5.398-5.398Z"/></g><defs><clipPath id="clip0_31_970"><path fill="#fff" d="M0 0h40v40H0z"/></clipPath></defs></symbol><symbol id="graduation-cap" viewBox="0 0 40 40"><path fill="currentColor" d="M39.834 16.958 19.957 7.015.079 16.958l8.207 4.103v6.763l11.663 5.832 11.702-5.682-.11-6.865 4.782-2.391V26.9h3.472v-9.92l.04-.023ZM28.148 25.82l-8.176 3.969-8.214-4.111v-2.889l8.207 4.104 8.127-4.072.056 2.999Zm-8.191-2.802-12.121-6.06 12.12-6.068 12.121 6.06-12.12 6.068Z"/></symbol><symbol id="grid" viewBox="0 0 40 41"><g fill="currentColor" clip-path="url(#clip0_31_981)"><path d="M.105 15.99H16.13V0H.105v15.99ZM23.975 0v15.99H40V0H23.975ZM.053 40.07h16.024V24.08H.053v15.99Zm23.87 0h16.024V24.08H23.923v15.99Z"/></g><defs><clipPath id="clip0_31_981"><path fill="#fff" d="M0 0h40v40.07H0z"/></clipPath></defs></symbol><symbol id="heart" viewBox="0 0 40 36"><g clip-path="url(#clip0_31_959)"><path fill="currentColor" d="M34.928 20.316 20.079 35.164 5.263 20.35c-3.506-3.507-3.506-9.217 0-12.73 3.494-3.494 9.171-3.494 12.665 0l2.151 2.15 2.118-2.118c3.507-3.506 9.224-3.506 12.73 0 3.494 3.494 3.494 9.171 0 12.665ZM20.079 30.98l12.757-12.756c2.335-2.336 2.335-6.139 0-8.48a6.051 6.051 0 0 0-8.546 0l-4.211 4.21-4.244-4.243c-2.335-2.336-6.138-2.336-8.48 0a6.051 6.051 0 0 0 0 8.546L20.08 30.98Z"/></g><defs><clipPath id="clip0_31_959"><path fill="#fff" d="M0 0h40v35.507H0z"/></clipPath></defs></symbol><symbol id="list" viewBox="0 0 40 41"><g fill="currentColor" clip-path="url(#clip0_31_982)"><path d="M39.79-.123h-40v7.898h40V-.123Zm.087 16.095h-40v7.898h40v-7.898Zm0 15.919h-40v7.898h40v-7.898Z"/></g><defs><clipPath id="clip0_31_982"><path fill="#fff" d="M0 0h40v40.07H0z"/></clipPath></defs></symbol><symbol id="minus" viewBox="0 0 40 41"><path fill="currentColor" d="M32.014 16.095H8.004v7.898h24.01v-7.898Z"/></symbol><symbol id="paper-plane" viewBox="0 0 40 42"><path fill="currentColor" d="m.182 15.039 17.896 7.41 7.284 18.515L39.748.227.181 15.04Zm9.926.17L29.86 7.816 19.08 18.922l-8.97-3.712ZM25.18 30.776l-3.63-9.23L32.378 10.4 25.18 30.776Z"/></symbol><symbol id="payments" viewBox="0 0 40 40"><g fill="currentColor" clip-path="url(#clip0_31_966)"><path d="M23.587.213c-6.33 0-11.806 3.63-14.465 8.917a16.05 16.05 0 0 1 5.184-1.586C6.36 8.578.23 15.372.23 23.594c0 8.941 7.244 16.185 16.184 16.185 6.33 0 11.814-3.638 14.473-8.933a16.161 16.161 0 0 0 8.885-14.44c0-8.941-7.244-16.193-16.184-16.193Zm4.616 27.958c-.008 0-.016.008-.032.008a12.636 12.636 0 0 1-2.809 4.309h.024c-.016.016-.024.031-.04.04a12.566 12.566 0 0 1-8.933 3.7c-3.369 0-6.55-1.318-8.932-3.7a12.553 12.553 0 0 1-3.701-8.934c0-3.377 1.318-6.55 3.7-8.932a12.566 12.566 0 0 1 8.933-3.701c3.37 0 6.55 1.318 8.933 3.7a12.566 12.566 0 0 1 3.701 8.933 12.402 12.402 0 0 1-.844 4.577Zm4.316-2.833-.016.016c.064-.576.095-1.16.095-1.752 0-8.94-7.244-16.184-16.184-16.184-.656 0-1.295.04-1.926.118.04-.008.079-.008.118-.016l.04-.04a12.566 12.566 0 0 1 8.933-3.7c3.377 0 6.55 1.318 8.932 3.7a12.566 12.566 0 0 1 3.701 8.933 12.489 12.489 0 0 1-3.693 8.925Z"/><path d="M17.124 14.48c-2.557.04-3.922 1.263-4.617 2.289-1.436 2.114-1.096 4.868-.812 5.634.039.11.094.213.15.323h-.853v3.551h1.72c-.213.513-.646.995-1.365 1.468l-.804.529v4.38l11.56.078.024-3.55-7.031-.048a5.698 5.698 0 0 0 1.27-2.849h3.575v-3.55h-4.104a11.548 11.548 0 0 0-.812-1.579c-.071-.465-.095-1.736.473-2.462.119-.158.49-.631 1.68-.647 1.106-.016 1.484.363 1.61.49.506.512.6 1.428.593 1.735v-.015l3.543.173c.015-.268.079-2.636-1.57-4.348-.719-.758-2.029-1.633-4.23-1.602Z"/></g><defs><clipPath id="clip0_31_966"><path fill="#fff" d="M0 0h40v40H0z"/></clipPath></defs></symbol><symbol id="phone" viewBox="0 0 40 41"><path fill="currentColor" d="m39.947 39.947-1.825-.035c-10.513-.228-20.15-4.142-27.117-11.04a35.677 35.677 0 0 1-8.039-11.987C1.036 12.215.053 7.16.053 1.843V.035h15.69l4.529 11.32-3.528 3.529a22.709 22.709 0 0 0 8.355 8.354l3.528-3.528 11.303 4.53v15.708h.017ZM3.686 3.651c.193 4.177 1.07 8.179 2.597 11.882a32.777 32.777 0 0 0 7.232 10.812c5.915 5.845 13.97 9.337 22.834 9.916v-9.583l-6.862-2.738-3.704 3.704-1.158-.58a26.083 26.083 0 0 1-6.793-4.896 26.378 26.378 0 0 1-4.897-6.793l-.579-1.158 3.704-3.704-2.738-6.915-9.636.053Zm36.261 10.952h-3.58v-.018c0-6.02-4.897-10.9-10.9-10.9h-.017V.089h.017c7.969 0 14.48 6.511 14.48 14.515Z"/><path fill="currentColor" d="M32.681 14.603h-3.58a3.648 3.648 0 0 0-3.651-3.65v-3.6c3.984 0 7.231 3.247 7.231 7.249Z"/></symbol><symbol id="plus" viewBox="0 0 40 41"><path fill="currentColor" d="M32.014 16.095h-.035v-.018h-7.916l-.017-8.056-7.899.018.018 8.038H7.582v7.898h.422v.018h8.161l.018 8.056 7.898-.017-.018-8.039h7.951v-7.898Z"/></symbol><symbol id="search" viewBox="0 0 40 40"><g clip-path="url(#clip0_31_980)"><path fill="currentColor" d="m39.716 37.246-7.552-7.552a17.885 17.885 0 0 0 4.072-11.402c0-9.935-8.057-17.984-17.984-17.984C8.325.308.268 8.357.268 18.292c0 9.934 8.057 17.983 17.984 17.983 4.324 0 8.302-1.53 11.403-4.071l7.551 7.551 2.51-2.509Zm-21.464-4.522c-3.859 0-7.48-1.499-10.211-4.23a14.337 14.337 0 0 1-4.23-10.21c0-3.86 1.5-7.481 4.23-10.211a14.337 14.337 0 0 1 10.211-4.23c3.859 0 7.48 1.5 10.211 4.23a14.337 14.337 0 0 1 4.23 10.21c0 3.86-1.5 7.481-4.23 10.212a14.337 14.337 0 0 1-10.21 4.23Z"/></g><defs><clipPath id="clip0_31_980"><path fill="#fff" d="M0 0h40v40H0z"/></clipPath></defs></symbol><symbol id="star" viewBox="0 0 40 36"><path fill="currentColor" d="m29.822 32.855-10.309-5.42-10.302 5.42 1.967-11.473-8.336-8.125 11.526-1.685 5.152-10.44 5.151 10.44 11.52 1.685-8.336 8.125 1.967 11.473Zm-10.309-8.763 6.375 3.355-1.217-7.098 5.158-5.027-7.132-1.04-3.184-6.453-3.184 6.454-7.132 1.04 5.158 5.026-1.217 7.098 6.375-3.355Z"/></symbol><symbol id="tasks" viewBox="0 0 40 40"><g fill="currentColor" clip-path="url(#clip0_31_972)"><path d="M7.512 4.364v3.693H3.82V4.364h3.693ZM11.063.813H.268v10.795h10.795V.813ZM7.512 18.757v3.693H3.82v-3.693h3.693Zm3.551-3.55H.268V26h10.795V15.206ZM7.512 33.143v3.693H3.82v-3.693h3.693Zm3.551-3.551H.268v10.795h10.795V29.592ZM39.834 4.435h-25.18v3.55h25.18v-3.55Zm0 14.393h-25.18v3.551h25.18v-3.55Zm0 14.386h-25.18v3.55h25.18v-3.55Z"/></g><defs><clipPath id="clip0_31_972"><path fill="#fff" d="M0 0h40v40H0z"/></clipPath></defs></symbol><symbol id="tick-box" viewBox="0 0 40 36"><path fill="currentColor" d="m17.388 19.21-4.263-4.256-2.092 2.099 6.335 6.315 1.047-1.046.02.027 9.545-9.546-2.092-2.093-8.5 8.5Z"/><path fill="currentColor" d="M28.678 1.257H10.336a7.324 7.324 0 0 0-7.323 7.322v18.342a7.32 7.32 0 0 0 7.323 7.322h18.342A7.32 7.32 0 0 0 36 26.921V8.58a7.324 7.324 0 0 0-7.322-7.322Zm4.361 25.67a4.367 4.367 0 0 1-4.361 4.363H10.336a4.367 4.367 0 0 1-4.362-4.362V8.579a4.367 4.367 0 0 1 4.362-4.362h18.342a4.367 4.367 0 0 1 4.361 4.362v18.349Z"/></symbol><symbol id="user" viewBox="0 0 40 40"><path fill="currentColor" d="M36.204 39.803h-3.55V36.07a7.082 7.082 0 0 0-7.079-7.078H14.504a7.082 7.082 0 0 0-7.078 7.078v3.733H3.875V36.07c0-5.863 4.766-10.63 10.629-10.63h11.071c5.863 0 10.63 4.767 10.63 10.63v3.733ZM20.035 7.386a5.45 5.45 0 0 1 5.445 5.445 5.446 5.446 0 0 1-10.89 0 5.45 5.45 0 0 1 5.445-5.445Zm0-3.55c-4.963 0-8.995 4.024-8.995 8.995 0 4.963 4.024 8.996 8.995 8.996 4.964 0 8.996-4.025 8.996-8.996a8.992 8.992 0 0 0-8.995-8.996Z"/></symbol><symbol id="users" viewBox="0 0 40 37"><path fill="currentColor" d="M21.953 21.873H10.757C4.823 21.873 0 26.696 0 32.629v3.778h3.594v-3.778a7.167 7.167 0 0 1 7.163-7.163H21.96a7.167 7.167 0 0 1 7.163 7.163v3.778h3.593v-3.778c0-5.933-4.831-10.756-10.764-10.756Zm-5.598-3.666c5.023 0 9.103-4.072 9.103-9.103A9.1 9.1 0 0 0 16.355 0 9.1 9.1 0 0 0 7.25 9.104c0 5.03 4.08 9.103 9.104 9.103Zm0-14.613a5.516 5.516 0 0 1 5.51 5.51 5.51 5.51 0 0 1-11.02 0 5.516 5.516 0 0 1 5.51-5.51Zm16.386 18.862v3.92a7.164 7.164 0 0 1 3.666 6.245v3.785H40v-3.785c-.008-4.703-3.042-8.712-7.259-10.165Z"/><path fill="currentColor" d="M32.741 9.104c0-4.4-3.122-8.074-7.283-8.92v3.721a5.508 5.508 0 0 1 0 10.397v3.721a9.1 9.1 0 0 0 7.283-8.92Z"/></symbol></defs></svg>