<svg xmlns="http://www.w3.org/2000/svg"><defs><symbol id="arrow" viewBox="0 0 40 41"><g clip-path="url(#clip0_31_979)"><path fill="transparent" d="M0 0h40v40.07H0z"/><path fill="currentColor" d="M39.965 19.903 23.028 2.966l-5.582 5.6 7.407 7.388H-.087v7.898H24.87l-7.406 7.442 5.599 5.582 16.85-16.902v-.018l.052-.053Z"/></g><defs><clipPath id="clip0_31_979"><path fill="transparent" d="M0 0h40v40.07H0z"/></clipPath></defs></symbol><symbol id="assessment" viewBox="0 0 40 36"><path fill="currentColor" d="M27.5 1.257H6.507V34.25H33.5V7.257l-6-6ZM9.467 31.29V4.216H26.02v4.52h4.52V31.29H9.466Z"/><path fill="currentColor" d="M27.493 10.276H12.5v2.96h14.993v-2.96Zm0 5.994H12.5v2.96h14.993v-2.96Zm0 6H12.5v2.96h14.993v-2.96Z"/></symbol><symbol id="bag" viewBox="0 0 40 40"><path fill="currentColor" d="M28.897 10.96V7.34c0-3.946-3.211-7.15-7.15-7.15H18.11c-3.945 0-7.15 3.212-7.15 7.15v3.614H3.74v28.779h32.378V10.96h-7.22ZM14.504 7.34a3.602 3.602 0 0 1 3.598-3.599h3.638a3.602 3.602 0 0 1 3.598 3.599v3.614H14.504V7.339Zm18.055 28.85H7.29V14.512h25.276v21.677h-.008Z"/></symbol><symbol id="bell" viewBox="0 0 40 40"><g clip-path="url(#clip0_31_955)"><path fill="currentColor" d="M39.613 32.606c-3.882 0-7.047-3.164-7.047-7.047V13.667c0-7.41-5.634-13.438-12.57-13.438-6.928 0-12.57 6.029-12.57 13.438V25.56c0 3.89-3.165 7.047-7.047 7.047H.213v3.551h.174c.236 0 .465-.008.694-.024h15.34v.063a3.58 3.58 0 0 0 3.583 3.583 3.58 3.58 0 0 0 3.582-3.583v-.063h15.34c.23.016.458.024.695.024h.174v-3.551h-.182Zm-19.61 3.614c-.015 0-.03-.016-.03-.031 0-.016.015-.032.03-.032.017 0 .032.016.032.032 0 .015-.015.031-.031.031Zm.356-3.59c-.118-.016-.237-.016-.363-.016s-.245.008-.363.016H8.27a10.578 10.578 0 0 0 2.714-7.07V13.666c0-5.452 4.049-9.887 9.02-9.887 4.971 0 9.02 4.435 9.02 9.887V25.56a10.54 10.54 0 0 0 2.714 7.07H20.359Z"/></g><defs><clipPath id="clip0_31_955"><path fill="#fff" d="M0 0h40v40H0z"/></clipPath></defs></symbol><symbol id="bookmark" viewBox="0 0 40 40"><path fill="currentColor" d="M29.008 3.772v28.297l-6.731-5.768-2.313-1.98-2.312 1.98-6.73 5.768V3.772h18.086ZM32.558.22H7.37v39.574L19.965 29l12.594 10.795V.22Z"/></symbol><symbol id="calendar" viewBox="0 0 40 40"><g clip-path="url(#clip0_31_985)"><path fill="currentColor" d="M32.559 3.748h-3.535V.481h-3.552v3.275H14.63V.481h-3.55v3.275H7.401C3.464 3.748.268 6.944.268 10.89v21.85a7.136 7.136 0 0 0 7.134 7.134h25.315a7.12 7.12 0 0 0 7.117-7.118V11.032a7.28 7.28 0 0 0-7.275-7.284ZM7.402 7.3h3.677v3.796h3.551V7.299h10.842v3.796h3.551V7.299h3.536a3.735 3.735 0 0 1 3.732 3.733v3.685H3.82V10.89c0-1.981 1.61-3.59 3.583-3.59Zm25.315 29.024H7.402a3.59 3.59 0 0 1-3.583-3.583V18.268h32.472v14.488a3.585 3.585 0 0 1-3.574 3.567Z"/></g><defs><clipPath id="clip0_31_985"><path fill="#fff" d="M0 0h40v40H0z"/></clipPath></defs></symbol><symbol id="check" viewBox="0 0 40 34"><path fill="currentColor" d="M38.876 9.171 34.23 4.527 15.363 23.395 5.9 13.947l-4.63 4.658 14.093 14.079 2.322-2.337.015.014 21.176-21.19Z"/></symbol><symbol id="chevron-down" viewBox="0 0 40 41"><path fill="currentColor" d="M19.955 20.356 8.58 9.018 3 14.616l16.902 16.85 16.99-16.885L31.311 9 19.955 20.356Z"/></symbol><symbol id="chevron-left" viewBox="0 0 40 41"><path fill="currentColor" d="M16.744 20.764 28.082 9.39l-5.58-5.564L5.633 20.728l2.808 2.773-.07.07L22.52 37.719l5.581-5.581-11.356-11.373Z"/></symbol><symbol id="chevron-right" viewBox="0 0 40 41"><path fill="currentColor" d="M23.607 20.764 12.269 32.136l5.598 5.581 16.85-16.902-2.79-2.79.052-.053L17.832 3.826l-5.581 5.582 11.356 11.356Z"/></symbol><symbol id="chevron-up" viewBox="0 0 40 41"><path fill="currentColor" d="m20.693 14.375 11.374 11.338 5.581-5.581-16.902-16.85L3.756 20.15l5.581 5.6 11.356-11.374Z"/></symbol><symbol id="clipboard" viewBox="0 0 40 40"><path fill="currentColor" d="M4.963.26v39.574h32.378V.26H4.963Zm10.764 3.551h10.842v3.67H15.727V3.81Zm18.055 32.472H8.515V3.811h3.669v7.22h17.944v-7.22h3.67v32.472h-.016Z"/><path fill="currentColor" d="M30.136 14.677H12.152v3.551h17.984v-3.55Zm0 7.197H12.152v3.551h17.984v-3.55Zm0 7.189H12.152v3.55h17.984v-3.55Z"/></symbol><symbol id="clock" viewBox="0 0 40 40"><path fill="currentColor" d="M20 0C8.95 0 0 8.95 0 20s8.959 20 20 20 20-8.959 20-20S31.05 0 20 0Zm11.608 31.608A16.298 16.298 0 0 1 20 36.418a16.298 16.298 0 0 1-11.607-4.81A16.298 16.298 0 0 1 3.582 20c0-4.388 1.707-8.504 4.81-11.607A16.298 16.298 0 0 1 20 3.582c4.388 0 8.504 1.707 11.608 4.81A16.298 16.298 0 0 1 36.418 20a16.378 16.378 0 0 1-4.81 11.608Z"/><path fill="currentColor" d="M21.795 7.268h-3.59v14.527h10.89v-3.59h-7.3V7.268Z"/></symbol><symbol id="close" viewBox="0 0 24 24"><path fill="currentColor" d="M23.347 6.235 17.748.67l-5.67 5.687L6.025.285.442 5.884l6.073 6.055-5.704 5.722 5.581 5.581 5.705-5.704 5.598 5.581 5.582-5.581-5.617-5.599 5.687-5.704Z"/></symbol><symbol id="content" viewBox="0 0 40 40"><path fill="currentColor" d="m23.65 2.928-3.6 1.799-3.598-1.8H.268v32.378h15.743l4.048 1.799 3.598-1.8h16.185V2.929H23.65Zm-6.89 28.826H3.82V6.479h11.797l2.66 1.333v24.62l-.829-.37-.686-.308Zm19.531 0H22.813l-.75.379-.236.118V7.804l2.66-1.333h11.796v25.283h.008Z"/><path fill="currentColor" d="M32.645 10.148H25.45v3.55h7.196v-3.55Zm0 7.189H25.45v3.55h7.196v-3.55Zm0 7.196H25.45v3.551h7.196v-3.55ZM14.662 10.148H7.465v3.55h7.197v-3.55Zm0 7.189H7.465v3.55h7.197v-3.55Zm0 7.196H7.465v3.551h7.197v-3.55Z"/></symbol><symbol id="dashboard" viewBox="0 0 40 40"><g fill="currentColor" clip-path="url(#clip0_31_957)"><path d="M14.614 3.772v7.291H3.733V3.772h10.881ZM18.165.22H.182v14.393h17.983V.221Zm18.032 28.733v7.29H25.315v-7.29h10.881Zm3.55-3.552H21.765v14.394h17.984V25.4Zm-3.55-21.629v14.48H25.315V3.772h10.881ZM39.746.22H21.765v21.582h17.984V.221ZM14.614 21.756v14.48H3.733v-14.48h10.881Zm3.551-3.551H.182v21.582h17.983V18.205Z"/></g><defs><clipPath id="clip0_31_957"><path fill="#fff" d="M0 0h40v40H0z"/></clipPath></defs></symbol><symbol id="discussion" viewBox="0 0 40 40"><path fill="currentColor" d="M36.197 9.13v16.28H9.681l-.986.82-4.971 4.143V9.13h32.471Zm3.55-3.551H.183v32.377l10.794-8.996h28.78V5.58h-.008Z"/><path fill="currentColor" d="M28.913 16.374h-3.551v3.551h3.551v-3.551Zm-7.173 0h-3.551v3.551h3.551v-3.551Zm-7.197 0h-3.55v3.551h3.55v-3.551Z"/></symbol><symbol id="document" viewBox="0 0 40 40"><path fill="currentColor" d="M32.543 11.679v-.024l-7.197-7.197h-.023v-.015l-1.776.015H7.354v32.378h25.181V11.679h.008Zm-5.003 0h-2.146l-.024-2.17 2.17 2.17Zm1.452 21.606H10.905V8.009h10.898l.071 7.22h7.11v18.056h.008Z"/></symbol><symbol id="envelope" viewBox="0 0 40 40"><path fill="currentColor" d="M.268 6.21v28.78h39.574V6.21H.268ZM32.44 9.761l-12.389 8.673L7.662 9.76H32.44ZM3.82 31.438V11.403l16.23 11.363 16.232-11.363v20.035H3.82Z"/></symbol><symbol id="exclamation-mark" viewBox="0 0 20 20"><path fill="currentColor" d="M10 20C4.477 20 0 15.523 0 10S4.477 0 10 0s10 4.477 10 10-4.477 10-10 10Zm-1-7v2h2v-2H9Zm0-8v6h2V5H9Z"/></symbol><symbol id="facebook" viewBox="0 0 24 24"><g clip-path="url(#clip0_250_11142)"><path fill="currentColor" d="M24 12c0-6.627-5.373-12-12-12S0 5.373 0 12c0 5.99 4.388 10.954 10.125 11.854V15.47H7.078V12h3.047V9.356c0-3.007 1.792-4.668 4.533-4.668 1.312 0 2.686.234 2.686.234v2.953H15.83c-1.491 0-1.956.925-1.956 1.875V12h3.328l-.532 3.469h-2.796v8.385C19.612 22.954 24 17.99 24 12Z"/></g><defs><clipPath id="clip0_250_11142"><path fill="currentColor" d="M0 0h24v24H0z"/></clipPath></defs></symbol><symbol id="folder" viewBox="0 0 40 40"><path fill="currentColor" d="M32.559 14.606V7.41H14.535l.072-3.599H.245L.182 7.41v28.779h32.377l7.196-21.583H32.56ZM3.733 7.45v-.08h7.251l-.07 3.599H29v3.645H7.37L3.733 25.536V7.449Zm26.261 25.189H5.106l4.829-14.48h24.889l-2.265 6.802-2.565 7.678Z"/></symbol><symbol id="gear" viewBox="0 0 40 40"><g fill="currentColor" clip-path="url(#clip0_31_970)"><path d="M19.996 4.948c.687.93 1.736 1.917 3.401 2.367a6.004 6.004 0 0 0 4.103-.34c.166 1.169.592 2.542 1.784 3.733 1.255 1.255 2.699 1.642 3.748 1.768-.457 1.057-.789 2.454-.347 4.119.45 1.665 1.436 2.707 2.367 3.401-.93.687-1.917 1.736-2.367 3.401-.442 1.665-.11 3.062.347 4.12-1.05.118-2.493.512-3.748 1.767-1.215 1.215-1.626 2.596-1.76 3.74a6.335 6.335 0 0 0-2.556-.552c-.521 0-1.05.07-1.57.205-1.666.45-2.707 1.436-3.402 2.367-.686-.93-1.736-1.917-3.401-2.367a5.875 5.875 0 0 0-1.57-.205 6.305 6.305 0 0 0-2.557.552c-.134-1.144-.544-2.525-1.76-3.74-1.254-1.255-2.699-1.642-3.748-1.768.458-1.057.79-2.454.347-4.119-.45-1.665-1.436-2.706-2.367-3.4.931-.688 1.917-1.737 2.367-3.402.442-1.665.11-3.062-.347-4.12 1.05-.117 2.494-.512 3.748-1.767 1.216-1.215 1.626-2.596 1.76-3.74.71.308 1.555.552 2.557.552.52 0 1.05-.07 1.57-.205 1.673-.45 2.715-1.436 3.401-2.367Zm0-4.87c-2.407 0-1.988 3.189-4.316 3.812a2.399 2.399 0 0 1-.647.087c-1.563 0-2.636-1.515-3.985-1.515-.316 0-.655.087-1.01.292-2.084 1.207-.135 3.756-1.84 5.46-.694.695-1.53.782-2.359.782-.268 0-.544-.008-.804-.008-.908 0-1.737.11-2.289 1.065-1.207 2.083 1.76 3.314 1.136 5.642C3.26 18.008.08 17.59.08 19.996s3.188 1.989 3.811 4.317c.624 2.327-2.343 3.558-1.136 5.642.552.955 1.389 1.065 2.288 1.065.269 0 .537-.008.805-.008.829 0 1.665.087 2.36.781 1.704 1.705-.253 4.254 1.838 5.46a2 2 0 0 0 1.01.293c1.35 0 2.423-1.515 3.986-1.515.205 0 .426.023.646.087 2.328.623 1.91 3.811 4.317 3.811s1.988-3.188 4.316-3.811a2.4 2.4 0 0 1 .648-.087c1.562 0 2.635 1.515 3.985 1.515.315 0 .654-.087 1.01-.292 2.083-1.207.134-3.756 1.838-5.46.695-.695 1.531-.782 2.36-.782.268 0 .544.008.804.008.908 0 1.736-.11 2.289-1.065 1.207-2.084-1.76-3.315-1.136-5.642.623-2.328 3.811-1.91 3.811-4.317s-3.188-1.988-3.811-4.316c-.624-2.328 2.343-3.56 1.136-5.643-.552-.954-1.389-1.065-2.288-1.065-.269 0-.537.008-.805.008-.829 0-1.665-.087-2.36-.781-1.704-1.705.119-4.798-2.154-5.603a2.39 2.39 0 0 0-.797-.15c-1.452 0-2.28 1.523-3.843 1.523-.213 0-.442-.031-.687-.094-2.328-.616-1.91-3.796-4.324-3.796Z"/><path d="M19.996 18.157a1.85 1.85 0 0 1 1.847 1.847 1.849 1.849 0 0 1-1.847 1.846 1.849 1.849 0 0 1-1.846-1.846 1.86 1.86 0 0 1 1.846-1.847Zm0-3.55a5.395 5.395 0 0 0-5.397 5.397 5.395 5.395 0 0 0 5.397 5.397 5.395 5.395 0 0 0 5.398-5.397 5.395 5.395 0 0 0-5.398-5.398Z"/></g><defs><clipPath id="clip0_31_970"><path fill="#fff" d="M0 0h40v40H0z"/></clipPath></defs></symbol><symbol id="graduation-cap" viewBox="0 0 40 40"><path fill="currentColor" d="M39.834 16.958 19.957 7.015.079 16.958l8.207 4.103v6.763l11.663 5.832 11.702-5.682-.11-6.865 4.782-2.391V26.9h3.472v-9.92l.04-.023ZM28.148 25.82l-8.176 3.969-8.214-4.111v-2.889l8.207 4.104 8.127-4.072.056 2.999Zm-8.191-2.802-12.121-6.06 12.12-6.068 12.121 6.06-12.12 6.068Z"/></symbol><symbol id="grid" viewBox="0 0 40 41"><g fill="currentColor" clip-path="url(#clip0_31_981)"><path d="M.105 15.99H16.13V0H.105v15.99ZM23.975 0v15.99H40V0H23.975ZM.053 40.07h16.024V24.08H.053v15.99Zm23.87 0h16.024V24.08H23.923v15.99Z"/></g><defs><clipPath id="clip0_31_981"><path fill="#fff" d="M0 0h40v40.07H0z"/></clipPath></defs></symbol><symbol id="heart" viewBox="0 0 23 20"><path d="m11.623 18.474 8.166-8.364c1.922-1.967 1.922-5.165 0-7.133a4.877 4.877 0 0 0-7.001 0L11.623 4.17l-1.184-1.212a4.847 4.847 0 0 0-6.965 0c-1.929 1.98-1.929 5.196 0 7.17l8.149 8.346Z"/></symbol><symbol id="instagram" viewBox="0 0 25 24"><g fill="currentColor" clip-path="url(#clip0_250_11143)"><path d="M12.2 2.16c3.206 0 3.586.015 4.847.071 1.172.052 1.805.249 2.227.413.557.215.96.478 1.378.895.422.422.68.82.895 1.378.164.422.361 1.06.413 2.227.056 1.265.07 1.645.07 4.847 0 3.206-.014 3.586-.07 4.846-.052 1.172-.249 1.805-.413 2.227a3.714 3.714 0 0 1-.895 1.378 3.69 3.69 0 0 1-1.378.895c-.422.165-1.06.361-2.227.413-1.266.056-1.645.07-4.847.07-3.206 0-3.586-.014-4.847-.07-1.172-.052-1.804-.248-2.226-.413a3.71 3.71 0 0 1-1.378-.895 3.691 3.691 0 0 1-.896-1.378c-.164-.422-.36-1.06-.412-2.227-.056-1.265-.07-1.645-.07-4.846 0-3.207.014-3.586.07-4.847.051-1.172.248-1.805.412-2.227.216-.558.478-.96.896-1.378a3.68 3.68 0 0 1 1.378-.895c.422-.164 1.06-.361 2.226-.413 1.261-.056 1.641-.07 4.847-.07Zm0-2.16C8.942 0 8.535.014 7.255.07 5.98.127 5.103.333 4.344.628a5.857 5.857 0 0 0-2.128 1.388A5.88 5.88 0 0 0 .828 4.139C.533 4.903.327 5.775.271 7.05.214 8.334.2 8.742.2 12s.013 3.666.07 4.945c.056 1.275.262 2.152.557 2.911.31.792.718 1.463 1.388 2.128a5.866 5.866 0 0 0 2.123 1.383c.764.296 1.636.502 2.911.558 1.28.056 1.688.07 4.945.07 3.258 0 3.666-.014 4.946-.07 1.275-.056 2.151-.262 2.91-.558a5.866 5.866 0 0 0 2.124-1.383 5.866 5.866 0 0 0 1.383-2.123c.295-.764.502-1.636.558-2.911.056-1.28.07-1.688.07-4.945 0-3.258-.014-3.666-.07-4.946-.056-1.275-.263-2.151-.558-2.91a5.62 5.62 0 0 0-1.373-2.133A5.867 5.867 0 0 0 20.06.633c-.764-.295-1.636-.502-2.91-.558C15.865.015 15.457 0 12.2 0Z"/><path d="M12.2 5.836A6.166 6.166 0 0 0 6.036 12a6.166 6.166 0 0 0 6.164 6.164A6.166 6.166 0 0 0 18.364 12 6.166 6.166 0 0 0 12.2 5.836Zm0 10.162A3.999 3.999 0 1 1 12.201 8a3.999 3.999 0 0 1 0 7.998Zm7.847-10.406a1.44 1.44 0 1 1-2.879 0 1.44 1.44 0 0 1 2.88 0Z"/></g><defs><clipPath id="clip0_250_11143"><path fill="currentColor" d="M.2 0h24v24H.2z"/></clipPath></defs></symbol><symbol id="linkedin" viewBox="0 0 25 24"><g clip-path="url(#clip0_250_11145)"><path fill="currentColor" d="M22.823 0H2.371C1.391 0 .6.773.6 1.73v20.536C.6 23.222 1.392 24 2.37 24h20.452c.98 0 1.777-.778 1.777-1.73V1.73C24.6.773 23.803 0 22.823 0ZM7.72 20.452H4.157V8.995H7.72v11.457ZM5.939 7.434a2.064 2.064 0 1 1 0-4.125 2.063 2.063 0 0 1 0 4.125ZM21.05 20.452h-3.558v-5.57c0-1.326-.023-3.037-1.851-3.037-1.852 0-2.133 1.449-2.133 2.944v5.663H9.956V8.995h3.412v1.566h.047c.474-.9 1.636-1.852 3.366-1.852 3.605 0 4.27 2.372 4.27 5.457v6.286Z"/></g><defs><clipPath id="clip0_250_11145"><path fill="currentColor" d="M.6 0h24v24H.6z"/></clipPath></defs></symbol><symbol id="list" viewBox="0 0 40 41"><g fill="currentColor" clip-path="url(#clip0_31_982)"><path d="M39.79-.123h-40v7.898h40V-.123Zm.087 16.095h-40v7.898h40v-7.898Zm0 15.919h-40v7.898h40v-7.898Z"/></g><defs><clipPath id="clip0_31_982"><path fill="#fff" d="M0 0h40v40.07H0z"/></clipPath></defs></symbol><symbol id="logo" viewBox="0 0 278 33"><path fill="currentColor" d="M18.631 14.512c0-4.592-3.07-7.944-7.282-7.944s-7.282 3.28-7.282 7.944c0 4.591 3.07 7.944 7.282 7.944 4.213 0 7.282-3.28 7.282-7.944Zm-18.42 0c0-6.487 4.641-11.515 11.21-11.515 6.568 0 11.066 5.028 11.066 11.515 0 6.486-4.64 11.515-11.21 11.515C4.71 25.954.213 20.998.213 14.512Zm37.483 3.644c0-2.842-1.643-4.446-3.713-4.446-1.356 0-2.427.583-3.355 1.458v6.34c.928.656 2.07 1.167 3.355 1.167 1.928 0 3.712-1.604 3.712-4.519Zm-12.78 11.005h2.142V13.929h-2.142v-3.134h5.64v1.676c1.143-1.093 2.356-1.968 4.284-1.968 3.784 0 6.568 3.134 6.568 7.58 0 4.3-2.998 7.726-6.854 7.726-1.57 0-2.855-.584-3.926-1.385v4.737h2.355v3.061h-8.067v-3.061Zm22.417-12.244h6.997c-.071-2.04-1.356-3.352-3.498-3.352-1.5-.073-3.07.874-3.498 3.352Zm.072 2.55c.5 2.26 2.356 3.28 4.783 3.28 1.785 0 3.57-.582 5.283-1.53l-.285 3.28c-1.5.947-3.356 1.312-5.497 1.312-4.712 0-7.997-3.061-7.997-7.58 0-4.154 2.856-7.653 7.354-7.653 4.64 0 6.997 3.134 6.997 7.07 0 .583-.072 1.312-.143 1.822H47.403ZM65.68 13.2c1.357-1.385 2.927-2.624 5.07-2.624 1.713 0 2.998.73 3.712 1.895.5.802.785 1.822.785 3.061v7.07h2.142v3.06h-7.71v-3.06h1.998v-6.195c0-.583-.071-1.166-.285-1.53-.357-.657-.928-.948-1.785-.948-1.285 0-2.57.729-3.713 1.75v6.923h2v3.06H60.04v-3.06h2.142v-8.673H60.04v-3.134h5.64V13.2Zm17.848 7.652c0-1.603.928-2.623 2.285-2.623 1.428 0 2.356 1.093 2.356 2.186 0 .51-.072.948-.286 1.312.786.583 2 .947 3.427.947 2.356 0 3.927-1.093 3.927-2.988 0-1.822-1.785-2.696-3.998-3.498-3.998-1.457-6.854-2.77-6.854-6.924 0-3.57 2.784-6.267 7.21-6.267 4.07 0 7.212 2.113 7.212 4.81 0 1.603-.929 2.478-2.214 2.478-1.499 0-2.356-1.166-2.356-2.26 0-.51.072-.801.215-1.02-.572-.364-1.5-.656-2.856-.656-2.142 0-3.427 1.093-3.427 2.697 0 1.822 1.785 2.623 3.998 3.425 3.927 1.385 6.854 2.77 6.854 6.924 0 4.227-3.213 6.632-7.64 6.632-4.426-.073-7.853-2.478-7.853-5.175Zm20.562 2.988c-.357-.582-.5-1.384-.5-2.331v-7.58h-2.784v-3.134h2.784V7.66l3.57-1.603v4.664h4.355v3.134h-4.355v6.924c0 .437.071.801.214 1.093.285.437.785.729 1.499.729.928 0 1.999-.365 2.856-.802l-.286 3.134c-.999.51-2.141.874-3.498.874-1.713.073-3.07-.583-3.855-1.967Zm11.994.074c-.428-.802-.714-1.823-.714-2.989V13.93h-2.141v-3.134h5.711v9.256c0 .656.071 1.093.286 1.53.357.656.928.948 1.784.948 1.286 0 2.571-.729 3.713-1.75v-6.85h-2.213v-3.134h5.854V22.53h2.142v3.06h-5.64v-2.331c-1.357 1.384-2.927 2.623-5.069 2.623-1.714 0-2.999-.801-3.713-1.967Zm27.343-2.697v-6.34c-.928-.657-2.07-1.167-3.427-1.167-1.999 0-3.855 1.604-3.855 4.519 0 2.842 1.713 4.446 3.855 4.446 1.357 0 2.499-.584 3.427-1.458Zm-10.923-2.915c0-4.3 3.07-7.726 6.925-7.726 1.856 0 3.213.73 3.998 1.385V4.017h-2.213V.883h5.783V22.53h2.142v3.06h-5.712v-1.603c-1.071 1.02-2.427 1.895-4.283 1.895-3.784 0-6.64-3.134-6.64-7.58Zm21.347 13.993c-1.927 0-3.07-1.166-3.07-2.332 0-1.24.857-1.895 1.785-1.895.857 0 1.357.51 1.571 1.093.357-.073.785-.364 1.142-.875a5.59 5.59 0 0 0 .643-1.166l1.071-2.332-5.141-10.932h-1.785v-3.134h7.497v2.915h-2.142l3.355 7.871 3.356-7.798h-2.213v-2.915h7.425v3.134h-1.785l-6.783 14.649c-.357.656-.714 1.312-1.142 1.749-1.071 1.312-2.356 1.968-3.784 1.968Zm19.633-17.637c0-6.924 5.212-11.661 10.852-11.661 4.355 0 7.996 2.842 7.996 5.539 0 1.093-.714 1.895-1.713 1.895-.857 0-1.499-.656-1.499-1.531 0-.729.499-1.312 1.07-1.458-.571-1.166-2.712-2.77-5.854-2.77-5.283 0-8.924 4.738-8.924 9.913 0 4.883 3.712 9.62 9.067 9.62 2.642 0 4.855-.947 6.925-2.842l1 1.384c-2.214 2.187-5.212 3.134-7.925 3.134-6.711.073-10.995-5.539-10.995-11.223Zm34.055 3.862c0-3.352-2.141-5.83-5.283-5.83-3.07 0-5.283 2.405-5.283 5.83 0 3.426 2.142 5.831 5.283 5.831 3.142-.073 5.283-2.478 5.283-5.83Zm-12.279 0c0-4.08 2.856-7.36 6.996-7.36 4.213 0 7.068 3.28 7.068 7.36 0 4.082-2.855 7.361-7.068 7.361-4.14 0-6.996-3.28-6.996-7.36Zm16.848 5.54h2.428V2.485h-2.428V.883h4.141V24.06h2.428v1.53h-6.569v-1.53Zm8.924 0h2.428V2.485h-2.428V.883h4.141V24.06h2.499v1.53h-6.64v-1.53Zm11.066-6.633h9.353c-.214-2.77-1.713-4.664-4.641-4.664-2.427-.073-4.426 1.749-4.712 4.664Zm-.071 1.458c.286 3.571 2.356 5.393 5.712 5.393 1.927 0 3.141-.583 4.783-1.603l-.143 1.749c-1.428.947-3.213 1.385-4.855 1.385-4.426 0-7.282-3.061-7.282-7.289 0-3.862 2.499-7.36 6.711-7.36 3.998 0 6.14 3.206 6.14 6.632 0 .51-.071.801-.071 1.093h-10.995Zm15.921-.437c0 3.133 2.142 5.611 5.069 5.611 2.07 0 3.569-1.02 4.855-2.405v-7.142c-1.143-1.02-2.571-1.822-4.641-1.822-3.213 0-5.283 2.697-5.283 5.758Zm11.566 7.798c0 1.822-.429 3.134-1.286 4.008-1.213 1.458-3.212 2.041-5.354 2.041-2.07 0-3.57-.656-4.355-1.385-.428-.437-.714-1.02-.714-1.53 0-.948.643-1.604 1.499-1.604.714 0 1.143.583 1.143 1.24 0 .364-.143.728-.429 1.093.357.291 1.357.655 3.07.655 1.428 0 2.927-.364 3.855-1.457.5-.656.929-1.604.929-2.842V23.33c-1.214 1.311-2.713 2.259-4.927 2.259-3.712 0-6.711-2.988-6.711-7.142 0-3.717 2.642-7.289 7.068-7.289 1.857 0 3.499.73 4.641 1.895v-1.676h3.927v1.53h-2.285v13.338h-.071Zm6.639-8.819h9.353c-.215-2.77-1.714-4.664-4.641-4.664-2.356-.073-4.355 1.749-4.712 4.664Zm0 1.458c.286 3.571 2.356 5.393 5.711 5.393 1.928 0 3.142-.583 4.784-1.603l-.143 1.749c-1.428.947-3.213 1.385-4.855 1.385-4.426 0-7.282-3.061-7.282-7.289 0-3.862 2.499-7.36 6.711-7.36 3.998 0 6.14 3.206 6.14 6.632 0 .51 0 .801-.071 1.093h-10.995Z"/></symbol><symbol id="minus" viewBox="0 0 40 41"><path fill="currentColor" d="M32.014 16.095H8.004v7.898h24.01v-7.898Z"/></symbol><symbol id="paper-plane" viewBox="0 0 40 42"><path fill="currentColor" d="m.182 15.039 17.896 7.41 7.284 18.515L39.748.227.181 15.04Zm9.926.17L29.86 7.816 19.08 18.922l-8.97-3.712ZM25.18 30.776l-3.63-9.23L32.378 10.4 25.18 30.776Z"/></symbol><symbol id="payments" viewBox="0 0 40 40"><g fill="currentColor" clip-path="url(#clip0_31_966)"><path d="M23.587.213c-6.33 0-11.806 3.63-14.465 8.917a16.05 16.05 0 0 1 5.184-1.586C6.36 8.578.23 15.372.23 23.594c0 8.941 7.244 16.185 16.184 16.185 6.33 0 11.814-3.638 14.473-8.933a16.161 16.161 0 0 0 8.885-14.44c0-8.941-7.244-16.193-16.184-16.193Zm4.616 27.958c-.008 0-.016.008-.032.008a12.636 12.636 0 0 1-2.809 4.309h.024c-.016.016-.024.031-.04.04a12.566 12.566 0 0 1-8.933 3.7c-3.369 0-6.55-1.318-8.932-3.7a12.553 12.553 0 0 1-3.701-8.934c0-3.377 1.318-6.55 3.7-8.932a12.566 12.566 0 0 1 8.933-3.701c3.37 0 6.55 1.318 8.933 3.7a12.566 12.566 0 0 1 3.701 8.933 12.402 12.402 0 0 1-.844 4.577Zm4.316-2.833-.016.016c.064-.576.095-1.16.095-1.752 0-8.94-7.244-16.184-16.184-16.184-.656 0-1.295.04-1.926.118.04-.008.079-.008.118-.016l.04-.04a12.566 12.566 0 0 1 8.933-3.7c3.377 0 6.55 1.318 8.932 3.7a12.566 12.566 0 0 1 3.701 8.933 12.489 12.489 0 0 1-3.693 8.925Z"/><path d="M17.124 14.48c-2.557.04-3.922 1.263-4.617 2.289-1.436 2.114-1.096 4.868-.812 5.634.039.11.094.213.15.323h-.853v3.551h1.72c-.213.513-.646.995-1.365 1.468l-.804.529v4.38l11.56.078.024-3.55-7.031-.048a5.698 5.698 0 0 0 1.27-2.849h3.575v-3.55h-4.104a11.548 11.548 0 0 0-.812-1.579c-.071-.465-.095-1.736.473-2.462.119-.158.49-.631 1.68-.647 1.106-.016 1.484.363 1.61.49.506.512.6 1.428.593 1.735v-.015l3.543.173c.015-.268.079-2.636-1.57-4.348-.719-.758-2.029-1.633-4.23-1.602Z"/></g><defs><clipPath id="clip0_31_966"><path fill="#fff" d="M0 0h40v40H0z"/></clipPath></defs></symbol><symbol id="phone" viewBox="0 0 40 41"><path fill="currentColor" d="m39.947 39.947-1.825-.035c-10.513-.228-20.15-4.142-27.117-11.04a35.677 35.677 0 0 1-8.039-11.987C1.036 12.215.053 7.16.053 1.843V.035h15.69l4.529 11.32-3.528 3.529a22.709 22.709 0 0 0 8.355 8.354l3.528-3.528 11.303 4.53v15.708h.017ZM3.686 3.651c.193 4.177 1.07 8.179 2.597 11.882a32.777 32.777 0 0 0 7.232 10.812c5.915 5.845 13.97 9.337 22.834 9.916v-9.583l-6.862-2.738-3.704 3.704-1.158-.58a26.083 26.083 0 0 1-6.793-4.896 26.378 26.378 0 0 1-4.897-6.793l-.579-1.158 3.704-3.704-2.738-6.915-9.636.053Zm36.261 10.952h-3.58v-.018c0-6.02-4.897-10.9-10.9-10.9h-.017V.089h.017c7.969 0 14.48 6.511 14.48 14.515Z"/><path fill="currentColor" d="M32.681 14.603h-3.58a3.648 3.648 0 0 0-3.651-3.65v-3.6c3.984 0 7.231 3.247 7.231 7.249Z"/></symbol><symbol id="pinterest" viewBox="0 0 24 24"><g clip-path="url(#clip0_250_11147)"><path fill="currentColor" d="M12 0C5.372 0 0 5.372 0 12c0 5.086 3.164 9.427 7.627 11.175-.104-.952-.202-2.405.042-3.44.22-.938 1.406-5.963 1.406-5.963s-.36-.717-.36-1.781c0-1.67.965-2.916 2.17-2.916 1.021 0 1.518.769 1.518 1.692 0 1.031-.656 2.569-.994 3.994-.28 1.195.6 2.17 1.777 2.17 2.133 0 3.773-2.25 3.773-5.494 0-2.873-2.062-4.884-5.01-4.884-3.413 0-5.42 2.56-5.42 5.208 0 1.031.4 2.137.896 2.737a.359.359 0 0 1 .084.343c-.089.38-.295 1.195-.332 1.359-.052.22-.174.267-.404.16-1.5-.7-2.437-2.888-2.437-4.65 0-3.788 2.752-7.262 7.926-7.262 4.163 0 7.397 2.968 7.397 6.933 0 4.135-2.606 7.463-6.225 7.463-1.214 0-2.357-.633-2.751-1.378 0 0-.6 2.292-.745 2.854-.272 1.04-1.004 2.349-1.491 3.146C9.572 23.812 10.763 24 12 24c6.628 0 12-5.372 12-12S18.628 0 12 0Z"/></g><defs><clipPath id="clip0_250_11147"><path fill="currentColor" d="M0 0h24v24H0z"/></clipPath></defs></symbol><symbol id="play" viewBox="0 0 448 512"><path d="M424.4 214.7 72.4 6.6C43.8-10.3 0 6.1 0 47.9V464c0 37.5 40.7 60.1 72.4 41.3l352-208c31.4-18.5 31.5-64.1 0-82.6z"/></symbol><symbol id="plus" viewBox="0 0 40 41"><path fill="currentColor" d="M32.014 16.095h-.035v-.018h-7.916l-.017-8.056-7.899.018.018 8.038H7.582v7.898h.422v.018h8.161l.018 8.056 7.898-.017-.018-8.039h7.951v-7.898Z"/></symbol><symbol id="search" viewBox="0 0 40 40"><g clip-path="url(#clip0_31_980)"><path fill="currentColor" d="m39.716 37.246-7.552-7.552a17.885 17.885 0 0 0 4.072-11.402c0-9.935-8.057-17.984-17.984-17.984C8.325.308.268 8.357.268 18.292c0 9.934 8.057 17.983 17.984 17.983 4.324 0 8.302-1.53 11.403-4.071l7.551 7.551 2.51-2.509Zm-21.464-4.522c-3.859 0-7.48-1.499-10.211-4.23a14.337 14.337 0 0 1-4.23-10.21c0-3.86 1.5-7.481 4.23-10.211a14.337 14.337 0 0 1 10.211-4.23c3.859 0 7.48 1.5 10.211 4.23a14.337 14.337 0 0 1 4.23 10.21c0 3.86-1.5 7.481-4.23 10.212a14.337 14.337 0 0 1-10.21 4.23Z"/></g><defs><clipPath id="clip0_31_980"><path fill="#fff" d="M0 0h40v40H0z"/></clipPath></defs></symbol><symbol id="star" viewBox="0 0 40 36"><path fill="currentColor" d="m29.822 32.855-10.309-5.42-10.302 5.42 1.967-11.473-8.336-8.125 11.526-1.685 5.152-10.44 5.151 10.44 11.52 1.685-8.336 8.125 1.967 11.473Zm-10.309-8.763 6.375 3.355-1.217-7.098 5.158-5.027-7.132-1.04-3.184-6.453-3.184 6.454-7.132 1.04 5.158 5.026-1.217 7.098 6.375-3.355Z"/></symbol><symbol id="tasks" viewBox="0 0 40 40"><g fill="currentColor" clip-path="url(#clip0_31_972)"><path d="M7.512 4.364v3.693H3.82V4.364h3.693ZM11.063.813H.268v10.795h10.795V.813ZM7.512 18.757v3.693H3.82v-3.693h3.693Zm3.551-3.55H.268V26h10.795V15.206ZM7.512 33.143v3.693H3.82v-3.693h3.693Zm3.551-3.551H.268v10.795h10.795V29.592ZM39.834 4.435h-25.18v3.55h25.18v-3.55Zm0 14.393h-25.18v3.551h25.18v-3.55Zm0 14.386h-25.18v3.55h25.18v-3.55Z"/></g><defs><clipPath id="clip0_31_972"><path fill="#fff" d="M0 0h40v40H0z"/></clipPath></defs></symbol><symbol id="tick-box" viewBox="0 0 40 36"><path fill="currentColor" d="m17.388 19.21-4.263-4.256-2.092 2.099 6.335 6.315 1.047-1.046.02.027 9.545-9.546-2.092-2.093-8.5 8.5Z"/><path fill="currentColor" d="M28.678 1.257H10.336a7.324 7.324 0 0 0-7.323 7.322v18.342a7.32 7.32 0 0 0 7.323 7.322h18.342A7.32 7.32 0 0 0 36 26.921V8.58a7.324 7.324 0 0 0-7.322-7.322Zm4.361 25.67a4.367 4.367 0 0 1-4.361 4.363H10.336a4.367 4.367 0 0 1-4.362-4.362V8.579a4.367 4.367 0 0 1 4.362-4.362h18.342a4.367 4.367 0 0 1 4.361 4.362v18.349Z"/></symbol><symbol id="tiktok" viewBox="0 0 25 24"><path fill="currentColor" d="M17.872 0h-4.044v16.348c0 1.948-1.556 3.548-3.492 3.548s-3.492-1.6-3.492-3.548c0-1.913 1.522-3.478 3.388-3.548V8.696C6.12 8.766 2.8 12.139 2.8 16.348 2.8 20.59 6.188 24 10.37 24c4.184 0 7.571-3.444 7.571-7.652V7.965A9.366 9.366 0 0 0 23.3 9.774V5.67c-3.042-.105-5.428-2.61-5.428-5.67Z"/></symbol><symbol id="twitter" viewBox="0 0 25 24"><g clip-path="url(#clip0_250_11144)"><path fill="currentColor" d="M7.95 21.75c9.055 0 14.009-7.504 14.009-14.008 0-.211-.005-.427-.014-.638A10 10 0 0 0 24.4 4.555c-.897.4-1.85.66-2.826.773a4.95 4.95 0 0 0 2.165-2.722A9.898 9.898 0 0 1 20.614 3.8a4.93 4.93 0 0 0-8.394 4.49A13.985 13.985 0 0 1 2.073 3.15a4.93 4.93 0 0 0 1.524 6.57 4.93 4.93 0 0 1-2.231-.614v.06a4.922 4.922 0 0 0 3.95 4.829 4.893 4.893 0 0 1-2.22.084 4.934 4.934 0 0 0 4.597 3.422A9.875 9.875 0 0 1 .4 19.538a13.969 13.969 0 0 0 7.55 2.212Z"/></g><defs><clipPath id="clip0_250_11144"><path fill="currentColor" d="M.4 0h24v24H.4z"/></clipPath></defs></symbol><symbol id="user" viewBox="0 0 40 40"><path fill="currentColor" d="M36.204 39.803h-3.55V36.07a7.082 7.082 0 0 0-7.079-7.078H14.504a7.082 7.082 0 0 0-7.078 7.078v3.733H3.875V36.07c0-5.863 4.766-10.63 10.629-10.63h11.071c5.863 0 10.63 4.767 10.63 10.63v3.733ZM20.035 7.386a5.45 5.45 0 0 1 5.445 5.445 5.446 5.446 0 0 1-10.89 0 5.45 5.45 0 0 1 5.445-5.445Zm0-3.55c-4.963 0-8.995 4.024-8.995 8.995 0 4.963 4.024 8.996 8.995 8.996 4.964 0 8.996-4.025 8.996-8.996a8.992 8.992 0 0 0-8.995-8.996Z"/></symbol><symbol id="users" viewBox="0 0 40 37"><path fill="currentColor" d="M21.953 21.873H10.757C4.823 21.873 0 26.696 0 32.629v3.778h3.594v-3.778a7.167 7.167 0 0 1 7.163-7.163H21.96a7.167 7.167 0 0 1 7.163 7.163v3.778h3.593v-3.778c0-5.933-4.831-10.756-10.764-10.756Zm-5.598-3.666c5.023 0 9.103-4.072 9.103-9.103A9.1 9.1 0 0 0 16.355 0 9.1 9.1 0 0 0 7.25 9.104c0 5.03 4.08 9.103 9.104 9.103Zm0-14.613a5.516 5.516 0 0 1 5.51 5.51 5.51 5.51 0 0 1-11.02 0 5.516 5.516 0 0 1 5.51-5.51Zm16.386 18.862v3.92a7.164 7.164 0 0 1 3.666 6.245v3.785H40v-3.785c-.008-4.703-3.042-8.712-7.259-10.165Z"/><path fill="currentColor" d="M32.741 9.104c0-4.4-3.122-8.074-7.283-8.92v3.721a5.508 5.508 0 0 1 0 10.397v3.721a9.1 9.1 0 0 0 7.283-8.92Z"/></symbol><symbol id="warning" viewBox="0 0 20 20"><path fill="currentColor" d="M10 20C4.477 20 0 15.523 0 10S4.477 0 10 0s10 4.477 10 10-4.477 10-10 10ZM9 9v6h2V9H9Zm0-4v2h2V5H9Z"/></symbol></defs></svg>