<svg width="40" height="40" viewBox="0 0 40 40" fill="none" xmlns="http://www.w3.org/2000/svg">
<g clip-path="url(#clip0_31_985)">
<path d="M32.5587 3.74827H29.0235V0.481354H25.4725V3.75616H14.6301V0.481354H11.0791V3.75616H7.40187C3.46421 3.74827 0.268311 6.94417 0.268311 10.8897V32.7402C0.268311 36.6778 3.46421 39.8737 7.40187 39.8737H32.7165C36.6463 39.8737 39.8343 36.6857 39.8343 32.756V11.0318C39.8343 7.0073 36.5753 3.74827 32.5587 3.74827ZM7.40187 7.29927H11.0791V11.0949H14.6301V7.29927H25.4725V11.0949H29.0235V7.29927H32.5587C34.6183 7.29927 36.2912 8.97218 36.2912 11.0318V14.7169H3.81931V10.8897C3.81931 8.90905 5.42909 7.29927 7.40187 7.29927ZM32.7165 36.3227H7.40187C5.42909 36.3227 3.81931 34.713 3.81931 32.7402V18.2679H36.2912V32.756C36.2833 34.7208 34.6814 36.3227 32.7165 36.3227Z" fill="#062134"/>
</g>
<defs>
<clipPath id="clip0_31_985">
<rect width="40" height="40" fill="white"/>
</clipPath>
</defs>
</svg>
