<svg xmlns="http://www.w3.org/2000/svg" fill="none" viewBox="0 0 40 40"><path fill="#062134" d="M20 0C8.95 0 0 8.95 0 20s8.959 20 20 20 20-8.959 20-20S31.05 0 20 0Zm11.608 31.608A16.298 16.298 0 0 1 20 36.418a16.298 16.298 0 0 1-11.607-4.81A16.298 16.298 0 0 1 3.582 20c0-4.388 1.707-8.504 4.81-11.607A16.298 16.298 0 0 1 20 3.582c4.388 0 8.504 1.707 11.608 4.81A16.298 16.298 0 0 1 36.418 20a16.378 16.378 0 0 1-4.81 11.608Z"/><path fill="#062134" d="M21.795 7.268h-3.59v14.527h10.89v-3.59h-7.3V7.268Z"/></svg>