<svg width="40" height="40" viewBox="0 0 40 40" fill="none" xmlns="http://www.w3.org/2000/svg">
<path d="M23.6497 2.92761L20.0513 4.72678L16.453 2.92761H0.268311V35.3048H16.0111L20.0592 37.104L23.6575 35.3048H39.8422V2.92761H23.6497ZM16.7607 31.7538H16.0032H3.81931V6.47861H15.6165L18.2758 7.81221V32.4324L17.4472 32.0616L16.7607 31.7538ZM36.2912 31.7538H23.6497H22.8132L22.0635 32.1326L21.8268 32.251V7.80431L24.4861 6.47072H36.2833V31.7538H36.2912Z" fill="#062134"/>
<path d="M32.6455 10.1479H25.4489V13.6989H32.6455V10.1479Z" fill="#062134"/>
<path d="M32.6455 17.3368H25.4489V20.8878H32.6455V17.3368Z" fill="#062134"/>
<path d="M32.6455 24.5334H25.4489V28.0844H32.6455V24.5334Z" fill="#062134"/>
<path d="M14.6617 10.1479H7.46497V13.6989H14.6617V10.1479Z" fill="#062134"/>
<path d="M14.6617 17.3368H7.46497V20.8878H14.6617V17.3368Z" fill="#062134"/>
<path d="M14.6617 24.5334H7.46497V28.0844H14.6617V24.5334Z" fill="#062134"/>
</svg>
