<svg width="40" height="40" viewBox="0 0 40 40" fill="none" xmlns="http://www.w3.org/2000/svg">
<g clip-path="url(#clip0_31_970)">
<path d="M19.9961 4.94773C20.6826 5.87888 21.7321 6.86527 23.3971 7.31506C23.9337 7.4571 24.4703 7.52812 24.999 7.52812C25.9854 7.52812 26.8219 7.2835 27.5005 6.97574C27.6662 8.14363 28.0923 9.51668 29.2839 10.7082C30.5386 11.9629 31.9826 12.3496 33.0322 12.4758C32.5745 13.5332 32.2431 14.93 32.685 16.595C33.1348 18.26 34.1211 19.3016 35.0523 19.9961C34.1211 20.6826 33.1348 21.7321 32.685 23.3971C32.2431 25.0622 32.5745 26.4589 33.0322 27.5163C31.9826 27.6347 30.5386 28.0292 29.2839 29.2839C28.0687 30.4991 27.6583 31.8801 27.5242 33.0243C26.814 32.7165 25.9696 32.4719 24.9675 32.4719C24.4466 32.4719 23.9179 32.5429 23.3971 32.6771C21.7321 33.1269 20.6905 34.1132 19.9961 35.0444C19.3095 34.1132 18.26 33.1269 16.595 32.6771C16.0821 32.535 15.5534 32.4719 15.0247 32.4719C14.0225 32.4719 13.1703 32.7165 12.4679 33.0243C12.3338 31.8801 11.9235 30.4991 10.7082 29.2839C9.45355 28.0292 8.00948 27.6425 6.95996 27.5163C7.41764 26.4589 7.74907 25.0622 7.30717 23.3971C6.85738 21.7321 5.87099 20.6905 4.93984 19.9961C5.87099 19.3095 6.85738 18.26 7.30717 16.595C7.74907 14.93 7.41764 13.5332 6.95996 12.4758C8.00948 12.3575 9.45355 11.9629 10.7082 10.7082C11.9235 9.493 12.3338 8.11206 12.4679 6.96785C13.1781 7.2756 14.0225 7.52023 15.0247 7.52023C15.5455 7.52023 16.0742 7.44921 16.595 7.31506C18.2679 6.86527 19.3095 5.87888 19.9961 4.94773ZM19.9961 0.0789185C17.5893 0.0789185 18.0075 3.26692 15.6796 3.89032C15.4508 3.95345 15.2377 3.97712 15.0326 3.97712C13.4701 3.97712 12.3969 2.46203 11.0476 2.46203C10.7319 2.46203 10.3926 2.54883 10.0375 2.754C7.95424 3.96134 9.90334 6.51017 8.19886 8.21465C7.50445 8.90906 6.66799 8.99586 5.83942 8.99586C5.57113 8.99586 5.29494 8.98797 5.03453 8.98797C4.12705 8.98797 3.29849 9.09845 2.74611 10.0533C1.53877 12.1365 4.50583 13.3675 3.88243 15.6954C3.25903 18.0075 0.0789185 17.5893 0.0789185 19.9961C0.0789185 22.4028 3.26692 21.9846 3.89032 24.3125C4.51372 26.6404 1.54666 27.8714 2.754 29.9546C3.30638 30.9095 4.14284 31.0199 5.04242 31.0199C5.31072 31.0199 5.57902 31.012 5.84731 31.012C6.67588 31.012 7.51234 31.0988 8.20675 31.7933C9.91123 33.4977 7.95424 36.0466 10.0454 37.2539C10.4005 37.4591 10.7398 37.5459 11.0554 37.5459C12.4048 37.5459 13.478 36.0308 15.0405 36.0308C15.2456 36.0308 15.4666 36.0545 15.6875 36.1176C18.0154 36.741 17.5972 39.929 20.004 39.929C22.4107 39.929 21.9925 36.741 24.3204 36.1176C24.5492 36.0545 24.7623 36.0308 24.9675 36.0308C26.5299 36.0308 27.6031 37.5459 28.9525 37.5459C29.2681 37.5459 29.6074 37.4591 29.9625 37.2539C32.0458 36.0466 30.0967 33.4977 31.8012 31.7933C32.4956 31.0988 33.332 31.012 34.1606 31.012C34.4289 31.012 34.7051 31.0199 34.9655 31.0199C35.873 31.0199 36.7015 30.9095 37.2539 29.9546C38.4612 27.8714 35.4942 26.6404 36.1176 24.3125C36.741 21.9846 39.929 22.4028 39.929 19.9961C39.929 17.5893 36.741 18.0075 36.1176 15.6796C35.4942 13.3518 38.4612 12.1207 37.2539 10.0375C36.7015 9.08267 35.8651 8.97219 34.9655 8.97219C34.6972 8.97219 34.4289 8.98008 34.1606 8.98008C33.332 8.98008 32.4956 8.89328 31.8012 8.19886C30.0967 6.49439 31.9195 3.40107 29.6469 2.59618C29.3549 2.4936 29.0945 2.44625 28.8499 2.44625C27.3979 2.44625 26.5694 3.96923 25.0069 3.96923C24.7939 3.96923 24.565 3.93767 24.3204 3.87454C21.9925 3.25903 22.4107 0.0789185 19.9961 0.0789185Z" fill="#062134"/>
<path d="M19.9961 18.1574C21.014 18.1574 21.8426 18.986 21.8426 20.004C21.8426 21.0219 21.014 21.8505 19.9961 21.8505C18.9781 21.8505 18.1495 21.0219 18.1495 20.004C18.1574 18.986 18.986 18.1574 19.9961 18.1574ZM19.9961 14.6064C17.0132 14.6064 14.5985 17.0211 14.5985 20.004C14.5985 22.9868 17.0132 25.4015 19.9961 25.4015C22.9789 25.4015 25.3936 22.9868 25.3936 20.004C25.3936 17.0211 22.9789 14.6064 19.9961 14.6064Z" fill="#062134"/>
</g>
<defs>
<clipPath id="clip0_31_970">
<rect width="40" height="40" fill="white"/>
</clipPath>
</defs>
</svg>
