<svg width="40" height="36" viewBox="0 0 40 36" fill="none" xmlns="http://www.w3.org/2000/svg">
<g clip-path="url(#clip0_31_959)">
<path d="M34.9277 20.3158L20.079 35.1645L5.26317 20.3487C1.75659 16.8421 1.75659 11.1316 5.26317 7.61842C8.7566 4.125 14.4342 4.125 17.9276 7.61842L20.079 9.76973L22.1974 7.65131C25.704 4.14473 31.4211 4.14473 34.9277 7.65131C38.4211 11.1447 38.4211 16.8224 34.9277 20.3158ZM20.079 30.9803L32.8355 18.2237C35.1711 15.8882 35.1711 12.0855 32.8355 9.74342C30.4803 7.38815 26.6448 7.38815 24.2895 9.74342L20.079 13.9539L15.8355 9.71052C13.5 7.375 9.69738 7.375 7.35528 9.71052C5.00002 12.0658 5.00002 15.9013 7.35528 18.2566L20.079 30.9803Z" fill="#062134"/>
</g>
<defs>
<clipPath id="clip0_31_959">
<rect width="40" height="35.5066" fill="white"/>
</clipPath>
</defs>
</svg>
