<svg width="25" height="24" viewBox="0 0 25 24" fill="none" xmlns="http://www.w3.org/2000/svg">
<g clip-path="url(#clip0_250_11143)">
<path d="M12.2002 2.16094C15.4064 2.16094 15.7861 2.175 17.0471 2.23125C18.2189 2.28281 18.8518 2.47969 19.2736 2.64375C19.8314 2.85938 20.2346 3.12188 20.6518 3.53906C21.0736 3.96094 21.3314 4.35938 21.5471 4.91719C21.7111 5.33906 21.908 5.97656 21.9596 7.14375C22.0158 8.40937 22.0299 8.78906 22.0299 11.9906C22.0299 15.1969 22.0158 15.5766 21.9596 16.8375C21.908 18.0094 21.7111 18.6422 21.5471 19.0641C21.3314 19.6219 21.0689 20.025 20.6518 20.4422C20.2299 20.8641 19.8314 21.1219 19.2736 21.3375C18.8518 21.5016 18.2143 21.6984 17.0471 21.75C15.7814 21.8062 15.4018 21.8203 12.2002 21.8203C8.99395 21.8203 8.61426 21.8062 7.35332 21.75C6.18145 21.6984 5.54863 21.5016 5.12676 21.3375C4.56895 21.1219 4.16582 20.8594 3.74863 20.4422C3.32676 20.0203 3.06895 19.6219 2.85332 19.0641C2.68926 18.6422 2.49238 18.0047 2.44082 16.8375C2.38457 15.5719 2.37051 15.1922 2.37051 11.9906C2.37051 8.78438 2.38457 8.40469 2.44082 7.14375C2.49238 5.97187 2.68926 5.33906 2.85332 4.91719C3.06895 4.35938 3.33145 3.95625 3.74863 3.53906C4.17051 3.11719 4.56895 2.85938 5.12676 2.64375C5.54863 2.47969 6.18613 2.28281 7.35332 2.23125C8.61426 2.175 8.99395 2.16094 12.2002 2.16094ZM12.2002 0C8.94238 0 8.53457 0.0140625 7.25488 0.0703125C5.97988 0.126563 5.10332 0.332812 4.34395 0.628125C3.55176 0.9375 2.88145 1.34531 2.21582 2.01562C1.54551 2.68125 1.1377 3.35156 0.82832 4.13906C0.533008 4.90313 0.326758 5.775 0.270508 7.05C0.214258 8.33437 0.200195 8.74219 0.200195 12C0.200195 15.2578 0.214258 15.6656 0.270508 16.9453C0.326758 18.2203 0.533008 19.0969 0.82832 19.8563C1.1377 20.6484 1.54551 21.3188 2.21582 21.9844C2.88145 22.65 3.55176 23.0625 4.33926 23.3672C5.10332 23.6625 5.9752 23.8687 7.2502 23.925C8.52988 23.9812 8.9377 23.9953 12.1955 23.9953C15.4533 23.9953 15.8611 23.9812 17.1408 23.925C18.4158 23.8687 19.2924 23.6625 20.0518 23.3672C20.8393 23.0625 21.5096 22.65 22.1752 21.9844C22.8408 21.3188 23.2533 20.6484 23.558 19.8609C23.8533 19.0969 24.0596 18.225 24.1158 16.95C24.1721 15.6703 24.1861 15.2625 24.1861 12.0047C24.1861 8.74688 24.1721 8.33906 24.1158 7.05938C24.0596 5.78438 23.8533 4.90781 23.558 4.14844C23.2627 3.35156 22.8549 2.68125 22.1846 2.01562C21.5189 1.35 20.8486 0.9375 20.0611 0.632812C19.2971 0.3375 18.4252 0.13125 17.1502 0.075C15.8658 0.0140625 15.458 0 12.2002 0Z" fill="currentColor"/>
<path d="M12.2002 5.83594C8.79707 5.83594 6.03613 8.59687 6.03613 12C6.03613 15.4031 8.79707 18.1641 12.2002 18.1641C15.6033 18.1641 18.3643 15.4031 18.3643 12C18.3643 8.59687 15.6033 5.83594 12.2002 5.83594ZM12.2002 15.9984C9.99238 15.9984 8.20176 14.2078 8.20176 12C8.20176 9.79219 9.99238 8.00156 12.2002 8.00156C14.408 8.00156 16.1986 9.79219 16.1986 12C16.1986 14.2078 14.408 15.9984 12.2002 15.9984Z" fill="currentColor"/>
<path d="M20.0471 5.59238C20.0471 6.38926 19.4002 7.03145 18.608 7.03145C17.8111 7.03145 17.1689 6.38457 17.1689 5.59238C17.1689 4.79551 17.8158 4.15332 18.608 4.15332C19.4002 4.15332 20.0471 4.8002 20.0471 5.59238Z" fill="currentColor"/>
</g>
<defs>
<clipPath id="clip0_250_11143">
<rect width="24" height="24" fill="currentColor" transform="translate(0.200195)"/>
</clipPath>
</defs>
</svg>
