<svg width="25" height="24" viewBox="0 0 25 24" fill="none" xmlns="http://www.w3.org/2000/svg">
<g clip-path="url(#clip0_250_11145)">
<path d="M22.823 0H2.37148C1.3918 0 0.599609 0.773438 0.599609 1.72969V22.2656C0.599609 23.2219 1.3918 24 2.37148 24H22.823C23.8027 24 24.5996 23.2219 24.5996 22.2703V1.72969C24.5996 0.773438 23.8027 0 22.823 0ZM7.71992 20.4516H4.15742V8.99531H7.71992V20.4516ZM5.93867 7.43438C4.79492 7.43438 3.87148 6.51094 3.87148 5.37187C3.87148 4.23281 4.79492 3.30937 5.93867 3.30937C7.07773 3.30937 8.00117 4.23281 8.00117 5.37187C8.00117 6.50625 7.07773 7.43438 5.93867 7.43438ZM21.0512 20.4516H17.4934V14.8828C17.4934 13.5562 17.4699 11.8453 15.6418 11.8453C13.7902 11.8453 13.509 13.2937 13.509 14.7891V20.4516H9.95586V8.99531H13.3684V10.5609H13.4152C13.8887 9.66094 15.0512 8.70938 16.7809 8.70938C20.3855 8.70938 21.0512 11.0813 21.0512 14.1656V20.4516Z" fill="white"/>
</g>
<defs>
<clipPath id="clip0_250_11145">
<rect width="24" height="24" fill="white" transform="translate(0.599609)"/>
</clipPath>
</defs>
</svg>
