<svg width="40" height="40" viewBox="0 0 40 40" fill="none" xmlns="http://www.w3.org/2000/svg">
<g clip-path="url(#clip0_31_955)">
<path d="M39.6133 32.606C35.7309 32.606 32.5665 29.4417 32.5665 25.5593V25.3857V13.6674C32.5665 6.25762 26.9323 0.228821 19.996 0.228821C13.0676 0.228821 7.42548 6.25762 7.42548 13.6674V25.3857V25.5593C7.42548 29.4496 4.26115 32.606 0.378726 32.606H0.213013V36.157H0.386617C0.62335 36.157 0.852192 36.1491 1.08103 36.1333H16.4213C16.4213 36.157 16.4213 36.1728 16.4213 36.1965C16.4213 38.1771 18.0232 39.779 20.0039 39.779C21.9846 39.779 23.5865 38.1771 23.5865 36.1965C23.5865 36.1728 23.5865 36.157 23.5865 36.1333H38.9268C39.1556 36.1491 39.3844 36.157 39.6212 36.157H39.7948V36.1333V32.6297V32.606H39.6133ZM20.0039 36.2201C19.9881 36.2201 19.9723 36.2044 19.9723 36.1886C19.9723 36.1728 19.9881 36.157 20.0039 36.157C20.0197 36.157 20.0355 36.1728 20.0355 36.1886C20.0355 36.2044 20.0197 36.2201 20.0039 36.2201ZM20.359 32.6297C20.2406 32.6139 20.1223 32.6139 19.996 32.6139C19.8697 32.6139 19.7514 32.6218 19.633 32.6297H8.26983C9.95063 30.7516 10.9844 28.2738 10.9844 25.5593V25.3857V13.6674C10.9844 8.21462 15.0325 3.77982 20.0039 3.77982C24.9753 3.77982 29.0234 8.21462 29.0234 13.6674V25.3857V25.5593C29.0234 28.2738 30.0493 30.7516 31.738 32.6297H20.359Z" fill="#062134"/>
</g>
<defs>
<clipPath id="clip0_31_955">
<rect width="40" height="40" fill="white"/>
</clipPath>
</defs>
</svg>
