<svg width="40" height="40" viewBox="0 0 40 40" fill="none" xmlns="http://www.w3.org/2000/svg">
<g clip-path="url(#clip0_31_966)">
<path d="M23.5865 0.213074C17.2578 0.213074 11.7814 3.84298 9.12209 9.13002C10.7161 8.32513 12.4679 7.78064 14.3065 7.54391C6.36021 8.57764 0.228821 15.3719 0.228821 23.5944C0.228821 32.535 7.47285 39.7791 16.4135 39.7791C22.7421 39.7791 28.2265 36.1413 30.8858 30.8463C36.157 28.187 39.7711 22.7185 39.7711 16.4056C39.7711 7.465 32.5271 0.213074 23.5865 0.213074ZM28.2028 28.1712C28.1949 28.1712 28.187 28.1791 28.1712 28.1791C27.5478 29.7731 26.6009 31.2409 25.362 32.4877C25.3699 32.4877 25.3778 32.4877 25.3857 32.4877C25.3699 32.5035 25.362 32.5192 25.3462 32.5271C22.9631 34.9103 19.783 36.2281 16.4135 36.2281C13.044 36.2281 9.86386 34.9103 7.48074 32.5271C5.09763 30.144 3.77982 26.9718 3.77982 23.5944C3.77982 20.217 5.09763 17.0448 7.48074 14.6617C9.86386 12.2786 13.044 10.9608 16.4135 10.9608C19.783 10.9608 22.9631 12.2786 25.3462 14.6617C27.7293 17.0448 29.0471 20.2249 29.0471 23.5944C29.055 25.1884 28.763 26.7351 28.2028 28.1712ZM32.5192 25.3383C32.5113 25.3462 32.5113 25.3462 32.5034 25.3541C32.5666 24.7781 32.5981 24.1941 32.5981 23.6023C32.5981 14.6617 25.3541 7.41765 16.4135 7.41765C15.7585 7.41765 15.1193 7.45711 14.488 7.53602C14.5275 7.52813 14.567 7.52813 14.6064 7.52024C14.6222 7.50445 14.638 7.48867 14.6459 7.48078C17.029 5.09767 20.2091 3.77985 23.5786 3.77985C26.956 3.77985 30.1282 5.09767 32.5113 7.48078C34.8944 9.86389 36.2122 13.044 36.2122 16.4135C36.2201 19.7751 34.9102 22.9552 32.5192 25.3383Z" fill="#062134"/>
<path d="M17.1237 14.4802C14.5669 14.5197 13.2018 15.7428 12.5074 16.7686C11.0712 18.8834 11.4105 21.6374 11.6946 22.4029C11.734 22.5133 11.7893 22.6159 11.8445 22.7264H10.9923V26.2774H12.7125C12.4995 26.7903 12.0655 27.2717 11.3474 27.7451L10.5425 28.2738V32.6534L22.1029 32.7323L22.1266 29.1813L15.0956 29.134C15.8848 28.1713 16.2399 27.177 16.3661 26.2853H19.9408V22.7343H15.8374C15.5691 22.0872 15.2693 21.5664 15.072 21.235C15.0562 21.2113 15.0404 21.1876 15.0246 21.1561C14.9536 20.6905 14.9299 19.42 15.4981 18.694C15.6165 18.5362 15.9873 18.0628 17.1789 18.047C18.2837 18.0312 18.6624 18.41 18.7887 18.5362C19.2937 19.0491 19.3884 19.9645 19.3805 20.2723V20.2565L22.9236 20.4301C22.9394 20.1618 23.0025 17.7945 21.3533 16.0821C20.6352 15.3245 19.3253 14.4486 17.1237 14.4802Z" fill="#062134"/>
</g>
<defs>
<clipPath id="clip0_31_966">
<rect width="40" height="40" fill="white"/>
</clipPath>
</defs>
</svg>
