<svg width="40" height="41" viewBox="0 0 40 41" fill="none" xmlns="http://www.w3.org/2000/svg">
<path d="M39.9473 39.9473L38.122 39.9122C27.6086 39.6841 17.9728 35.7701 11.0048 28.8723C7.52961 25.4498 4.82667 21.4304 2.9662 16.8846C1.03553 12.2159 0.0526428 7.16103 0.0526428 1.84291V0.0350952H15.7437L20.272 11.3559L16.7442 14.8837C18.7275 18.3414 21.6411 21.2549 25.0987 23.2383L28.6266 19.7104L39.9298 24.2387V39.9473H39.9473ZM3.68582 3.65072C3.87888 7.82799 4.75646 11.8297 6.28345 15.5331C7.9684 19.6226 10.4081 23.2558 13.5147 26.3449C19.4296 32.1896 27.4857 35.6823 36.3493 36.2615V26.6784L29.4866 23.9403L25.7832 27.6437L24.6248 27.0645C22.0974 25.8008 19.8157 24.1509 17.8324 22.1676C15.849 20.1843 14.1992 17.885 12.9355 15.3752L12.3563 14.2168L16.0597 10.5134L13.3216 3.59806L3.68582 3.65072Z" fill="#062134"/>
<path d="M39.9473 14.6029H36.3668V14.5854C36.3668 8.56517 31.4699 3.68584 25.4673 3.68584H25.4498V0.0877686H25.4673C33.4357 0.0877686 39.9473 6.5994 39.9473 14.6029Z" fill="#062134"/>
<path d="M32.681 14.6029H29.1005C29.1005 12.5845 27.4682 10.9522 25.4498 10.9522V7.35413C29.434 7.35413 32.681 10.6012 32.681 14.6029Z" fill="#062134"/>
</svg>
