<svg width="40" height="40" viewBox="0 0 40 40" fill="none" xmlns="http://www.w3.org/2000/svg">
<g clip-path="url(#clip0_31_980)">
<path d="M39.7159 37.246L32.1641 29.6942C34.713 26.593 36.2359 22.6238 36.2359 18.2916C36.2359 8.35666 28.1791 0.307739 18.2521 0.307739C8.32511 0.307739 0.268295 8.35666 0.268295 18.2916C0.268295 28.2265 8.32511 36.2754 18.2521 36.2754C22.5764 36.2754 26.5536 34.7445 29.6548 32.2036L37.2065 39.7554L39.7159 37.246ZM18.2521 32.7244C14.3934 32.7244 10.7714 31.2251 8.04103 28.4948C5.31071 25.7644 3.8114 22.1424 3.8114 18.2837C3.8114 14.4249 5.31071 10.8029 8.04103 8.07258C10.7714 5.34226 14.3934 3.84295 18.2521 3.84295C22.1109 3.84295 25.7329 5.34226 28.4632 8.07258C31.1935 10.8029 32.6928 14.4249 32.6928 18.2837C32.6928 22.1424 31.1935 25.7644 28.4632 28.4948C25.7329 31.2251 22.1109 32.7244 18.2521 32.7244Z" fill="#062134"/>
</g>
<defs>
<clipPath id="clip0_31_980">
<rect width="40" height="40" fill="white"/>
</clipPath>
</defs>
</svg>
