<svg width="40" height="36" viewBox="0 0 40 36" fill="none" xmlns="http://www.w3.org/2000/svg">
<path d="M17.3882 19.2105L13.125 14.9539L11.0329 17.0526L17.3684 23.3684L18.4145 22.3224L18.4342 22.3487L27.9803 12.8026L25.8882 10.7105L17.3882 19.2105Z" fill="#062134"/>
<path d="M28.6777 1.25659H10.3356C6.2895 1.25659 3.01318 4.53949 3.01318 8.57896V26.9211C3.01318 30.9671 6.2895 34.2434 10.3356 34.2434H28.6777C32.7237 34.2434 36 30.9671 36 26.9211V8.57896C36 4.53949 32.7237 1.25659 28.6777 1.25659ZM33.0395 26.9276C33.0395 29.3355 31.079 31.2895 28.6777 31.2895H10.3356C7.92766 31.2895 5.97371 29.329 5.97371 26.9276V8.57896C5.97371 6.17107 7.93424 4.21712 10.3356 4.21712H28.6777C31.0856 4.21712 33.0395 6.17764 33.0395 8.57896V26.9276Z" fill="#062134"/>
</svg>
