<svg width="25" height="24" viewBox="0 0 25 24" fill="none" xmlns="http://www.w3.org/2000/svg">
<g clip-path="url(#clip0_250_11144)">
<path d="M7.95055 21.7497C17.0049 21.7497 21.9587 14.2465 21.9587 7.74162C21.9587 7.53068 21.954 7.31505 21.9446 7.10412C22.9083 6.40722 23.7399 5.54401 24.4004 4.55505C23.5029 4.95436 22.55 5.21514 21.5743 5.32849C22.6017 4.71266 23.3709 3.74523 23.7395 2.60552C22.7729 3.17831 21.716 3.58237 20.6138 3.80037C19.8712 3.01132 18.8894 2.48887 17.8201 2.31381C16.7508 2.13874 15.6536 2.32081 14.6981 2.83185C13.7427 3.3429 12.9822 4.15446 12.5342 5.14107C12.0863 6.12767 11.9758 7.23437 12.2199 8.29005C10.2629 8.19185 8.34833 7.68346 6.60037 6.79785C4.85242 5.91225 3.31008 4.66919 2.07336 3.14927C1.44479 4.233 1.25245 5.5154 1.53542 6.73585C1.8184 7.95629 2.55545 9.0232 3.5968 9.71974C2.81502 9.69492 2.05037 9.48444 1.36602 9.10568V9.16662C1.36532 10.3039 1.75849 11.4063 2.4787 12.2865C3.19891 13.1667 4.20171 13.7703 5.31664 13.9947C4.59245 14.1929 3.83237 14.2218 3.09523 14.0791C3.40985 15.0572 4.02196 15.9126 4.84616 16.5261C5.67036 17.1395 6.66551 17.4804 7.69273 17.501C5.94881 18.8709 3.79456 19.6139 1.57695 19.6104C1.18368 19.6098 0.79079 19.5857 0.400391 19.5382C2.65325 20.9835 5.27392 21.7511 7.95055 21.7497Z" fill="white"/>
</g>
<defs>
<clipPath id="clip0_250_11144">
<rect width="24" height="24" fill="white" transform="translate(0.400391)"/>
</clipPath>
</defs>
</svg>
