<svg width="40" height="37" viewBox="0 0 40 37" fill="none" xmlns="http://www.w3.org/2000/svg">
<path d="M21.9525 21.8726H10.7566C4.82332 21.8726 0 26.6959 0 32.6293V36.4065H3.59353V32.6293C3.59353 28.6764 6.80375 25.4662 10.7566 25.4662H21.9605C25.9134 25.4662 29.1236 28.6764 29.1236 32.6293V36.4065H32.7171V32.6293C32.7171 26.6959 27.8858 21.8726 21.9525 21.8726Z" fill="#062134"/>
<path d="M16.3546 18.2072C21.3775 18.2072 25.4582 14.1346 25.4582 9.10361C25.4582 4.07267 21.3855 0 16.3546 0C11.3236 0 7.25095 4.07267 7.25095 9.10361C7.25095 14.1346 11.3316 18.2072 16.3546 18.2072ZM16.3546 3.59353C19.3891 3.59353 21.8646 6.06109 21.8646 9.10361C21.8646 12.1461 19.3971 14.6137 16.3546 14.6137C13.312 14.6137 10.8445 12.1461 10.8445 9.10361C10.8445 6.06109 13.32 3.59353 16.3546 3.59353Z" fill="#062134"/>
<path d="M32.7411 22.4556V26.3765C34.9291 27.6063 36.4065 29.9461 36.4065 32.6213V36.4065H40V32.6213C39.992 27.9177 36.9575 23.909 32.7411 22.4556Z" fill="#062134"/>
<path d="M32.7411 9.1036C32.7411 4.70352 29.6187 1.03013 25.4582 0.183655V3.90496C27.6063 4.65561 29.1475 6.69993 29.1475 9.1036C29.1475 11.5073 27.6063 13.5516 25.4582 14.3022V18.0235C29.6107 17.1851 32.7411 13.5117 32.7411 9.1036Z" fill="#062134"/>
</svg>
