<svg width="40" height="40" viewBox="0 0 40 40" fill="none" xmlns="http://www.w3.org/2000/svg">
<path d="M36.2044 39.8027H32.6534V36.0702C32.6534 32.1641 29.4812 28.9919 25.5751 28.9919H14.5039C10.5978 28.9919 7.42554 32.1641 7.42554 36.0702V39.8027H3.87454V36.0702C3.87454 30.2071 8.64077 25.4409 14.5039 25.4409H25.5751C31.4382 25.4409 36.2044 30.2071 36.2044 36.0702V39.8027Z" fill="#062134"/>
<path d="M20.0355 7.38608C23.0341 7.38608 25.4804 9.82443 25.4804 12.8309C25.4804 15.8375 23.042 18.2758 20.0355 18.2758C17.029 18.2758 14.5907 15.8375 14.5907 12.8309C14.5907 9.82443 17.0369 7.38608 20.0355 7.38608ZM20.0355 3.83508C15.072 3.83508 11.0397 7.85955 11.0397 12.8309C11.0397 17.7944 15.0641 21.8268 20.0355 21.8268C24.999 21.8268 29.0314 17.8023 29.0314 12.8309C29.0314 7.85955 25.0069 3.83508 20.0355 3.83508Z" fill="#062134"/>
</svg>
